<svg width="230" height="281" viewBox="0 0 230 281" fill="none" xmlns="http://www.w3.org/2000/svg">
    <defs>
        <linearGradient id="paint0_linear" x1="81.0674" y1="105.343" x2="217.025" y2="288.939" gradientUnits="userSpaceOnUse">
            <stop stop-color="#D22362"/>
            <stop offset="1" stop-color="#E2846D"/>
        </linearGradient>
        <linearGradient id="paint1_linear" x1="69.0398" y1="270.047" x2="69.0398" y2="5.00054" gradientUnits="userSpaceOnUse">
            <stop stop-color="#808080" stop-opacity="0.25"/>
            <stop offset="0.54" stop-color="#808080" stop-opacity="0.12"/>
            <stop offset="1" stop-color="#808080" stop-opacity="0.1"/>
        </linearGradient>
    </defs>
<path fill-rule="evenodd" clip-rule="evenodd" d="M221.569 161.248C221.569 189.319 205.117 213.545 181.333 224.805L173.918 237.795L152.193 275.863L130.011 238.059L122.578 225.392C98.1089 214.404 81.0674 189.817 81.0674 161.248C81.0674 122.437 112.52 90.9736 151.318 90.9736C190.117 90.9736 221.569 122.437 221.569 161.248ZM177.244 160.83C177.244 174.922 165.824 186.346 151.736 186.346C137.649 186.346 126.229 174.922 126.229 160.83C126.229 146.738 137.649 135.314 151.736 135.314C165.824 135.314 177.244 146.738 177.244 160.83Z" fill="url(#paint0_linear)"/>
<path opacity="0.1" d="M153.076 68.3689C152.891 68.3079 152.824 68.0085 152.925 67.7C153.027 67.3915 153.259 67.1908 153.444 67.2517C153.629 67.3127 153.697 67.6121 153.595 67.9206C153.494 68.2291 153.262 68.4298 153.076 68.3689Z" fill="#82CFCB"/>
<path opacity="0.1" d="M151.691 67.9108C151.506 67.8499 151.438 67.5505 151.539 67.242C151.641 66.9335 151.873 66.7328 152.058 66.7937C152.244 66.8547 152.311 67.1541 152.21 67.4626C152.108 67.7711 151.876 67.9718 151.691 67.9108Z" fill="#82CFCB"/>
<path opacity="0.1" d="M150.46 67.5058C150.275 67.4449 150.207 67.1454 150.309 66.8369C150.411 66.5285 150.643 66.3278 150.828 66.3887C151.013 66.4496 151.081 66.7491 150.979 67.0576C150.878 67.3661 150.645 67.5667 150.46 67.5058Z" fill="#82CFCB"/>
<path opacity="0.1" d="M143.564 65.7211C143.379 65.6602 143.311 65.3608 143.413 65.0523C143.515 64.7438 143.747 64.5431 143.932 64.604C144.117 64.665 144.185 64.9644 144.083 65.2729C143.982 65.5814 143.749 65.7821 143.564 65.7211Z" fill="#82CFCB"/>
<path opacity="0.1" d="M140.877 64.841C140.692 64.7801 140.624 64.4806 140.725 64.1722C140.827 63.8637 141.059 63.663 141.244 63.7239C141.43 63.7848 141.497 64.0843 141.396 64.3928C141.294 64.7013 141.062 64.9019 140.877 64.841Z" fill="#82CFCB"/>
<path opacity="0.1" d="M139.529 64.3938C139.344 64.3328 139.276 64.0334 139.378 63.7249C139.479 63.4164 139.712 63.2157 139.897 63.2766C140.082 63.3376 140.15 63.637 140.048 63.9455C139.947 64.254 139.714 64.4547 139.529 64.3938Z" fill="#82CFCB"/>
<path opacity="0.1" d="M138.219 63.9658C138.033 63.9049 137.966 63.6054 138.067 63.2969C138.169 62.9884 138.401 62.7877 138.586 62.8487C138.771 62.9096 138.839 63.2091 138.738 63.5175C138.636 63.826 138.404 64.0267 138.219 63.9658Z" fill="#82CFCB"/>
<path opacity="0.1" d="M136.931 63.5407C136.746 63.4798 136.679 63.1803 136.78 62.8719C136.882 62.5634 137.114 62.3627 137.299 62.4236C137.484 62.4845 137.552 62.784 137.45 63.0925C137.349 63.401 137.117 63.6017 136.931 63.5407Z" fill="#82CFCB"/>
<path opacity="0.1" d="M135.47 63.0634C135.285 63.0025 135.218 62.703 135.319 62.3946C135.421 62.0861 135.653 61.8854 135.838 61.9463C136.023 62.0073 136.091 62.3067 135.989 62.6152C135.888 62.9237 135.656 63.1244 135.47 63.0634Z" fill="#82CFCB"/>
<path opacity="0.1" d="M142.178 65.2668C141.993 65.2059 141.925 64.9064 142.027 64.5979C142.128 64.2895 142.361 64.0888 142.546 64.1497C142.731 64.2106 142.799 64.5101 142.697 64.8186C142.595 65.127 142.363 65.3277 142.178 65.2668Z" fill="#82CFCB"/>
<path opacity="0.1" d="M148.125 65.6691L149.388 65.981L148.845 68.1825L147.581 67.8706L148.125 65.6691Z" fill="#82CFCB"/>
<path opacity="0.1" d="M133.243 61.41L134.506 61.7219L133.963 63.9234L132.7 63.6115L133.243 61.41Z" fill="#82CFCB"/>
<path opacity="0.1" d="M126.8 58.6516L128.476 59.0926L127.638 60.3569L125.153 59.7395L126.8 58.6516Z" fill="#82CFCB"/>
<path opacity="0.1" d="M121.202 58.5596L124.826 59.5042L126.201 58.6589L125.286 58.1223C123.909 58.0057 122.523 58.1542 121.202 58.5596Z" fill="#82CFCB"/>
<path d="M73.8073 272.391C56.6679 272.391 42.7737 270.259 42.7737 267.628C42.7737 264.998 56.6679 262.866 73.8073 262.866C90.9466 262.866 104.841 264.998 104.841 267.628C104.841 270.259 90.9466 272.391 73.8073 272.391Z" fill="#F5F5F6"/>
<path d="M17.4873 139.591L18.3546 137.136L18.0349 136.798L19.7291 128.448C19.6637 128.154 19.6402 127.852 19.6593 127.551C19.616 126.674 19.8755 125.808 20.3944 125.1L20.7325 123.442C20.7367 123.311 20.7281 123.179 20.7068 123.049C20.0121 113.299 24.1835 101.508 24.1835 101.508V90.6592L27.403 69.431C27.3406 58.8133 31.5083 55.0976 31.5083 55.0976C31.5083 55.0976 31.8501 55.0168 32.405 54.8477C33.5076 52.5654 35.3857 48.9673 38.4581 43.1862C39.5994 40.9866 41.0887 38.986 42.8684 37.2617C45.2397 34.8462 48.2621 33.1722 51.5677 32.4435C51.2841 32.1244 50.9756 31.8282 50.6452 31.5578C49.9102 30.9661 49.0943 30.4919 48.407 29.8561C47.4901 28.9701 46.7897 27.8848 46.3599 26.6844C45.6549 24.9549 45.4622 23.059 45.8049 21.223C45.9864 20.3077 46.3504 19.4384 46.8751 18.6667C47.3998 17.8951 48.0746 17.2371 48.8591 16.7319C49.318 16.4965 49.7516 16.2145 50.1527 15.8902C50.6783 15.3867 50.9245 14.6774 51.1928 14.0122C52.1211 11.7326 53.5171 9.67306 55.2907 7.96644C56.0258 7.23139 56.9299 6.55148 57.981 6.46695C59.0321 6.38242 60.0685 6.94473 61.0608 7.37105C62.7736 8.08712 64.6207 8.42498 66.476 8.36155C68.3313 8.29813 70.1511 7.8349 71.8109 7.00353C73.4243 6.1766 74.9789 4.97113 76.7908 5.00053C77.4078 5.02815 78.0115 5.18857 78.5607 5.47082C79.11 5.75306 79.5919 6.1505 79.9736 6.63601C79.9405 6.56618 79.9111 6.49635 79.8744 6.42652C80.539 7.17128 80.9764 8.09082 81.135 9.07636V9.17559C81.135 11.8071 80.4477 14.795 78.2756 16.5996C78.4337 16.798 78.5917 16.9965 78.7387 17.2023C80.031 18.9723 80.9167 21.0057 81.3328 23.1574C81.749 25.3091 81.6852 27.5261 81.146 29.6503C81.2409 29.6947 81.333 29.745 81.4216 29.801L83.4944 31.2049L88.2245 35.2845L90.3341 36.7104C88.1289 35.086 84.9682 32.4398 85.7253 31.8334C86.7691 30.9991 97.317 34.0385 99.7353 36.8575C100.775 38.074 102.121 40.3489 103.311 42.5467L103.396 42.385C103.495 42.5173 103.609 42.6753 103.727 42.8444L103.774 42.7562C104.267 43.4177 105.042 44.5497 105.902 45.8324C106.215 46.2954 106.538 46.7806 106.858 47.2694C110.199 51.0218 116.619 58.5818 117.549 62.2129C117.549 62.2129 123.867 72.4558 122.349 77.5166C120.831 82.5774 114.705 83.566 110.283 82.0224C107.126 80.9198 99.298 77.1454 95.0825 75.0762L95.5014 81.0374C95.5014 81.0374 98.9488 105.529 101.643 115.467C102.11 117.183 102.554 118.47 102.955 119.113C103.006 119.197 103.054 119.286 103.098 119.374C105.825 124.567 109.967 153.737 109.967 153.737C109.967 153.737 113.642 157.626 106.557 158.122C101.676 158.46 98.7503 162.617 97.4052 165.164V165.219C97.5485 169.118 97.611 172.444 97.5228 174.535C97.2619 180.945 97.9969 189.042 98.4747 193.415C98.717 195.605 98.6477 197.819 98.2689 199.99C97.2325 205.977 94.9906 218.201 93.164 223.416C90.7016 230.45 91.8372 238.227 91.8372 238.227C91.8372 238.227 89.3748 245.817 87.0999 248.595C86.9327 248.785 86.7322 248.944 86.5081 249.062C86.5375 249.286 86.5669 249.514 86.6074 249.745C86.9749 251.91 87.8018 254.409 89.6174 256.295C92.3077 259.091 96.038 262.91 96.4754 265.689C96.6812 267.026 96.1373 268.122 94.3548 268.761C88.8419 270.735 81.7193 268.761 81.7193 268.761C81.7193 268.761 76.9195 267.034 76.9195 265.306C76.9195 263.579 74.9606 263.579 74.9606 263.579L71.8035 261.374C71.7226 260.232 71.7226 259.086 71.8035 257.945C71.9432 255.74 72.4246 253.013 73.8359 251.267C74.2516 250.752 74.5919 250.18 74.8466 249.569C74.9394 249.341 75.0192 249.108 75.0855 248.871C73.7698 248.65 72.8473 248.503 72.6966 248.599C72.127 248.966 70.4216 238.786 74.7805 233.416C79.1393 228.047 77.0554 223.232 77.0554 223.232C77.0554 223.232 77.6251 203.606 80.4661 201.942C80.4661 201.942 78.1948 196.017 78.3822 193.055C78.5696 190.093 79.5178 184.168 78.3822 182.871C77.8456 182.257 75.6368 178.093 73.4721 173.896C73.3435 173.65 73.2148 173.403 73.1046 173.161C71.7705 173.253 70.3004 173.308 68.7678 173.278C68.7494 173.521 68.7274 173.764 68.7053 174.013C68.3635 177.711 67.5366 181.765 65.699 184.73V203.43C65.699 203.43 64.3722 208.8 63.2366 211.023C62.1009 213.247 66.7721 228.609 66.7721 228.609C66.7721 228.609 69.3669 247.401 66.7721 249.76C66.2169 250.197 65.5676 250.499 64.8757 250.642C64.8353 250.896 64.7985 251.153 64.7618 251.414C64.3943 253.92 64.148 256.658 64.4384 258.235C64.7778 260.263 64.7678 262.334 64.409 264.358C64.3538 264.667 64.3134 264.836 64.3134 264.836C64.3134 264.836 65.5115 270.823 57.2349 269.981C48.9583 269.14 48.0762 266.523 48.0762 266.523C48.078 266.445 48.0842 266.368 48.0946 266.291C48.1397 265.7 48.2183 265.113 48.3298 264.531C48.8338 261.925 49.8766 259.452 51.3913 257.272C52.0526 256.37 52.4358 255.295 52.4939 254.178C52.4939 253.443 52.5416 252.641 52.5821 251.84C52.5821 251.594 52.6078 251.348 52.6225 251.105C52.0271 251.065 51.6706 251.032 51.6706 251.032C51.6706 251.032 49.0208 246.405 49.2082 237.514C49.3956 228.624 47.1243 220.483 47.1243 220.483C47.1243 220.483 46.5547 207.153 47.1243 205.301C47.694 203.448 48.3261 192.97 46.8708 191.544C45.8637 190.556 44.5554 178.413 43.846 171.059C43.8203 170.809 43.7983 170.566 43.7762 170.324C41.9202 170.25 40.7441 170.239 40.7441 170.239C40.7441 170.239 40.5383 164.796 40.3582 157.376L39.5534 157.071C39.8988 157.626 39.5276 159.132 36.8447 158.375C33.3863 157.405 28.7886 156.571 28.7886 156.571C28.7886 156.571 26.3262 154.81 26.2159 153.561C26.1162 152.922 25.9737 152.291 25.7896 151.672C20.398 149.522 15.9657 147.728 15.9657 147.728C15.9657 147.728 14.2016 144.836 17.4873 139.591ZM36.3633 108.547L35.7201 113.787L37.5577 114.353L41.4277 114.618C42.5046 104.838 40.6927 88.3805 40.6927 88.3805L40.3656 88.1674C38.7301 94.7571 36.3633 108.547 36.3633 108.547ZM55.695 40.4114C55.7758 40.224 55.853 40.0439 55.9339 39.8234L55.5664 40.3894C55.6098 40.3931 55.6528 40.4005 55.695 40.4114ZM41.3028 115.504L41.3689 114.986L40.101 114.717L38.098 114.511L41.3028 115.504ZM81.146 43.392C81.6862 43.5206 82.2485 43.6603 82.7815 43.8183L82.6859 43.7632L81.1129 42.826C81.1349 43.0077 81.146 43.1906 81.146 43.3736V43.392ZM98.9745 57.0124C100.239 57.6299 100.871 57.5674 100.871 57.5674L97.9675 51.9443C97.6316 51.4348 97.3284 50.9045 97.0597 50.3566C96.2281 50.0305 95.3226 49.9402 94.443 50.0956C94.443 50.0956 93.741 49.9376 92.6568 49.673C92.9067 49.9891 93.1383 50.3198 93.3551 50.658C93.3551 50.658 97.7139 56.395 98.9745 57.0124ZM39.0976 156.846L38.1862 156.479C38.5684 156.788 38.9028 156.931 39.0976 156.846Z" fill="url(#paint1_linear)"/>
<path d="M69.6566 35.6887C70.8254 36.376 70.8621 39.3125 70.682 41.6683C70.5534 43.392 70.3145 44.8033 70.3145 44.8033L77.9186 63.2897C77.9186 63.2897 80.7375 50.1177 80.7816 44.2373C80.7857 43.7733 80.7149 43.3116 80.5721 42.8701C79.2306 38.6326 71.7773 36.2657 69.6566 35.6887Z" fill="#67647E"/>
<path d="M69.0949 35.5306C69.0949 35.5306 69.3007 35.5784 69.6572 35.6776C69.4863 35.5792 69.2921 35.5284 69.0949 35.5306Z" fill="#67647E"/>
<path d="M71.73 260.587L74.7915 262.792C74.7915 262.792 76.6916 262.792 76.6916 264.509C76.6916 266.225 81.3444 267.938 81.3444 267.938C81.3444 267.938 88.2686 269.897 93.5977 267.938C95.325 267.302 95.8543 266.214 95.6521 264.887C95.2295 262.12 91.6094 258.338 89.0036 255.563C87.2432 253.692 86.431 251.212 86.0855 249.065C85.8313 247.529 85.7623 245.969 85.8797 244.416L74.6702 243.619C75.3135 245.31 75.3135 247.179 74.6702 248.871C74.4245 249.475 74.0941 250.042 73.6889 250.554C72.3217 252.289 71.8513 255.012 71.719 257.169C71.6418 258.307 71.6455 259.45 71.73 260.587Z" fill="#67647E"/>
<path d="M48.6972 265.67C48.6972 265.67 49.5536 268.243 57.5803 269.103C65.607 269.963 64.4566 264.016 64.4566 264.016C64.4566 264.016 64.4971 263.847 64.5485 263.542C64.8982 261.532 64.9082 259.477 64.5779 257.463C64.2986 255.898 64.5412 253.182 64.8903 250.694C65.3019 247.731 65.8643 245.089 65.8643 245.089L53.4273 246.008C53.4273 246.008 53.2104 248.54 53.0855 251.098C53.045 251.895 53.012 252.693 53.0009 253.421C52.9429 254.525 52.5706 255.59 51.9278 256.489C50.4538 258.661 49.4429 261.113 48.9582 263.693C48.8511 264.272 48.775 264.856 48.7303 265.442C48.7046 265.6 48.6972 265.67 48.6972 265.67Z" fill="#67647E"/>
<path d="M71.73 260.587L74.7915 262.792C74.7915 262.792 76.6916 262.792 76.6916 264.509C76.6916 266.225 81.3444 267.938 81.3444 267.938C81.3444 267.938 88.2686 269.897 93.5977 267.938C95.325 267.302 95.8543 266.214 95.6521 264.887C95.4867 264.887 95.3287 264.909 95.1964 264.913C93.0133 264.983 90.889 265.571 88.717 265.766C87.4794 265.857 86.2375 265.877 84.9976 265.825C84.3824 265.821 83.7683 265.773 83.16 265.681C81.6899 265.42 80.3264 264.66 79.0143 263.913C78.6937 263.762 78.4112 263.541 78.1874 263.267C78.0108 262.961 77.8866 262.628 77.8199 262.282C77.3568 260.62 76.0631 259.29 74.5783 258.415C73.6746 257.901 72.7169 257.488 71.7227 257.184C71.6461 258.317 71.6486 259.454 71.73 260.587Z" fill="#67647E"/>
<path d="M48.6975 265.67C48.6975 265.67 49.5539 268.243 57.5806 269.103C65.6073 269.963 64.4569 264.016 64.4569 264.016C64.4569 264.016 64.4974 263.847 64.5488 263.542C64.1813 263.733 63.8689 263.91 63.7256 263.991C62.9905 264.421 62.3327 265.012 61.5682 265.413C59.7306 266.38 57.5071 266.093 55.4526 265.78C54.4787 265.633 53.5048 265.486 52.5345 265.306C51.7944 265.207 51.0742 264.994 50.3992 264.674C49.8958 264.384 49.4143 264.057 48.9585 263.697C48.8514 264.275 48.7753 264.859 48.7306 265.446C48.7049 265.6 48.6975 265.67 48.6975 265.67Z" fill="#67647E"/>
<path opacity="0.1" d="M71.73 260.587L74.7915 262.792C74.7915 262.792 76.6916 262.792 76.6916 264.509C76.6916 266.225 81.3444 267.938 81.3444 267.938C81.3444 267.938 88.2686 269.897 93.5977 267.938C95.325 267.302 95.8543 266.214 95.6521 264.887C95.4867 264.887 95.3287 264.909 95.1964 264.913C93.0133 264.983 90.889 265.571 88.717 265.766C87.4794 265.857 86.2375 265.877 84.9976 265.825C84.3824 265.821 83.7683 265.773 83.16 265.681C81.6899 265.42 80.3264 264.66 79.0143 263.913C78.6937 263.762 78.4112 263.541 78.1874 263.267C78.0108 262.961 77.8866 262.628 77.8199 262.282C77.3568 260.62 76.0631 259.29 74.5783 258.415C73.6746 257.901 72.7169 257.488 71.7227 257.184C71.6461 258.317 71.6486 259.454 71.73 260.587Z" fill="black"/>
<path opacity="0.1" d="M48.6975 265.67C48.6975 265.67 49.5539 268.243 57.5806 269.103C65.6073 269.963 64.4569 264.016 64.4569 264.016C64.4569 264.016 64.4974 263.847 64.5488 263.542C64.1813 263.733 63.8689 263.91 63.7256 263.991C62.9905 264.421 62.3327 265.012 61.5682 265.413C59.7306 266.38 57.5071 266.093 55.4526 265.78C54.4787 265.633 53.5048 265.486 52.5345 265.306C51.7944 265.207 51.0742 264.994 50.3992 264.674C49.8958 264.384 49.4143 264.057 48.9585 263.697C48.8514 264.275 48.7753 264.859 48.7306 265.446C48.7049 265.6 48.6975 265.67 48.6975 265.67Z" fill="black"/>
<path opacity="0.1" d="M74.6702 243.619C75.3135 245.31 75.3135 247.179 74.6702 248.871C77.886 249.418 83.8803 250.524 86.0854 249.065C85.8313 247.529 85.7622 245.969 85.8796 244.416L74.6702 243.619Z" fill="black"/>
<path opacity="0.1" d="M53.0635 251.098C55.3348 251.26 61.4467 251.579 64.8684 250.694C65.28 247.731 65.8423 245.089 65.8423 245.089L53.4053 246.008C53.4053 246.008 53.1958 248.54 53.0635 251.098Z" fill="black"/>
<path d="M44.1031 165.399C44.1031 165.399 44.2942 167.696 44.5993 170.912C45.2865 178.211 46.5545 190.262 47.5395 191.243C48.9507 192.658 48.337 203.059 47.7857 204.896C47.2344 206.734 47.7857 219.965 47.7857 219.965C49.1715 225.492 49.8507 231.173 49.8071 236.871C49.6233 245.692 52.196 250.286 52.196 250.286C52.196 250.286 64.3242 251.388 66.8344 249.043C69.3446 246.699 66.8344 228.05 66.8344 228.05C66.8344 228.05 62.3029 212.798 63.4054 210.593C64.508 208.388 65.7943 203.059 65.7943 203.059V184.499C67.5768 181.559 68.367 177.516 68.7088 173.863C68.9802 170.738 68.9888 167.595 68.7345 164.469C68.7345 164.469 71.0168 169.136 73.3433 173.753C75.4455 177.924 77.5845 182.051 78.1211 182.661C79.2236 183.948 78.3048 189.828 78.1211 192.768C77.9373 195.708 80.1424 201.589 80.1424 201.589C77.386 203.243 76.8347 222.721 76.8347 222.721C76.8347 222.721 78.8561 227.499 74.6296 232.828C70.4031 238.157 72.0569 248.264 72.6082 247.897C73.1595 247.529 84.369 250.653 86.5741 247.897C88.7792 245.14 91.1681 237.606 91.1681 237.606C91.1681 237.606 90.0656 229.888 92.4545 222.905C94.2259 217.73 96.398 205.598 97.405 199.656C97.7722 197.499 97.839 195.303 97.6035 193.128C97.1404 188.788 96.4274 180.754 96.681 174.385C96.7655 172.308 96.7067 169.008 96.5671 165.138C96.093 151.87 94.6596 131.936 94.6596 131.936L84.6703 125.206L78.0917 120.745L76.4819 120.991L46.4847 125.611L45.3196 140.407L44.1031 165.399Z" fill="#444053"/>
<path opacity="0.1" d="M84.6703 125.206L85.1958 128.095C85.1958 128.095 89.6061 149.228 90.5249 160.07C91.4437 170.911 95.3027 167.788 95.3027 167.788C95.6399 166.877 96.053 165.997 96.5376 165.156C96.0635 151.888 94.6302 131.954 94.6302 131.954L84.6703 125.206Z" fill="black"/>
<path d="M53.1703 45.035C53.1703 45.035 73.7516 61.5111 69.9514 58.2033C67.8712 56.3878 69.2862 48.6477 70.9915 42.0323C72.3954 36.5746 73.9941 31.8776 73.9941 31.8776C73.9941 31.8776 56.0296 15.0708 57.3343 28.8125C57.7937 33.6675 57.4115 37.1002 56.7242 39.5479C55.4746 43.9839 53.1703 45.035 53.1703 45.035Z" fill="#EFB7B9"/>
<path opacity="0.1" d="M54.8831 40.6501L67.9302 50.8489L71.7303 46.6224C71.7303 46.6224 74.9756 45.2148 75.2218 46.8062C75.4681 48.3975 76.3832 58.1994 74.4868 59.1182C72.5903 60.037 70.1353 60.6508 67.9926 60.3457C65.85 60.0407 63.4611 57.6481 61.866 56.7293C60.271 55.8105 54.3943 51.0327 54.3943 51.0327L51.4541 46.9311L54.8831 40.6501Z" fill="black"/>
<path d="M54.8831 41.0178L67.9302 51.2166L71.7303 46.9901C71.7303 46.9901 74.9756 45.5825 75.2218 47.1738C75.4681 48.7652 76.3832 58.5671 74.4868 59.4859C72.5903 60.4047 70.1353 61.0184 67.9926 60.7134C65.85 60.4084 63.4611 58.0158 61.866 57.097C60.271 56.1782 54.3943 51.4004 54.3943 51.4004L51.4541 47.2988L54.8831 41.0178Z" fill="white"/>
<path opacity="0.1" d="M44.1029 165.399C44.1029 165.399 44.2941 167.696 44.5991 170.912C48.6419 171.066 56.4848 171.544 61.9903 172.985C64.1885 173.528 66.4409 173.823 68.705 173.863C68.9763 170.738 68.9849 167.596 68.7307 164.469C68.7307 164.469 71.013 169.137 73.3394 173.753C75.3295 173.62 77.3094 173.363 79.2676 172.985L76.8162 141.131C76.8162 141.131 76.8971 130.44 76.4928 120.98L46.4955 125.6L45.3305 140.396L44.1029 165.399Z" fill="black"/>
<path opacity="0.1" d="M66.644 49.9964C66.644 49.9964 57.7316 40.2533 55.6183 41.8006C53.5051 43.3479 52.1379 47.1186 52.1379 47.1186L59.3855 55.0792L66.644 49.9964Z" fill="black"/>
<path d="M66.2764 49.6289C66.2764 49.6289 57.3639 39.8859 55.2507 41.4331C53.1374 42.9804 51.7702 46.7512 51.7702 46.7512L59.0178 54.7118L66.2764 49.6289Z" fill="white"/>
<path opacity="0.1" d="M73.667 55.873L68.5437 49.423C68.5437 49.423 69.3559 43.3258 71.234 44.1049C73.112 44.8841 73.667 48.0007 73.667 48.0007V55.873Z" fill="black"/>
<path d="M74.0566 55.4467L68.9334 48.9967C68.9334 48.9967 69.7419 42.8995 71.6236 43.6786C73.5054 44.4578 74.0566 47.5781 74.0566 47.5781V55.4467Z" fill="white"/>
<path opacity="0.1" d="M50.4727 43.8699C50.4727 43.8699 61.0243 55.2631 67.3237 56.0275C67.897 56.0974 68.463 56.1929 69.029 56.3069C70.6718 56.6303 74.2588 56.3069 73.6892 46.8872L74.4867 45.2187L79.3858 48.2213L81.0396 61.6948L83.9798 96.242L88.3276 134.711C88.3276 134.711 74.9755 133.424 71.2378 136.794C67.5001 140.165 66.46 118.418 66.46 118.418L56.2318 74.3155L45.3274 45.9537L50.4727 43.8699Z" fill="black"/>
<path opacity="0.1" d="M45.3274 47.4237L56.2318 75.7854L66.46 119.888C66.46 119.888 67.5038 141.631 71.2378 138.264C72.458 137.162 74.7072 136.559 77.1806 136.247C80.2222 135.919 83.2861 135.85 86.3393 136.041C87.5595 136.107 88.3276 136.181 88.3276 136.181L83.9798 97.7119L81.0396 63.1647L79.3858 49.6913L74.4867 46.6886L73.6892 48.3572C73.6892 48.6034 73.7149 48.846 73.7259 49.0922C74.0714 57.7952 70.6277 58.1039 69.029 57.7878C68.463 57.6739 67.897 57.5783 67.3237 57.5085C62.8619 56.9609 56.2686 51.0915 52.8028 47.7177C51.3732 46.3211 50.4727 45.3508 50.4727 45.3508L45.3274 47.4237Z" fill="black"/>
<path d="M45.3274 46.3211L56.2318 74.6829L66.46 118.786C66.46 118.786 67.5038 140.528 71.2378 137.162C72.458 136.059 74.7072 135.457 77.1806 135.144C80.2222 134.817 83.2861 134.748 86.3393 134.938C87.5595 135.005 88.3276 135.078 88.3276 135.078L83.9798 96.6093L81.0396 62.0621L79.3858 48.5887L74.4867 45.5861L73.6892 47.2546C73.6892 47.5009 73.7149 47.7434 73.7259 47.9897C74.0714 56.6926 70.6277 57.0014 69.029 56.6853C68.463 56.5714 67.897 56.4758 67.3237 56.406C62.8619 55.8584 56.2686 49.989 52.8028 46.6151C51.3732 45.2186 50.4727 44.2483 50.4727 44.2483L45.3274 46.3211Z" fill="#E1E7EF"/>
<path opacity="0.1" d="M73.6892 47.2657C73.6892 47.5119 73.7149 47.7545 73.7259 48.0007L73.8105 48.0595C75.1041 48.9122 77.1806 63.3117 77.1806 63.3117L79.8746 100.002L84.8362 127.386C84.8362 127.386 85.4867 130.506 86.3393 134.964C87.5595 135.03 88.3276 135.104 88.3276 135.104L83.9798 96.6351L81.0396 62.0879L79.3858 48.6145L74.4867 45.6118L73.6892 47.2657Z" fill="black"/>
<path d="M70.3113 44.8033C70.3113 44.8033 73.2515 47.1849 74.5452 48.0375C75.8389 48.8902 77.9154 63.2898 77.9154 63.2898L80.6093 99.9796L85.5709 127.36C85.5709 127.36 89.9812 148.493 90.9 159.335C91.8188 170.177 95.6778 167.053 95.6778 167.053C95.6778 167.053 98.5592 158.6 105.417 158.111C112.275 157.622 108.725 153.759 108.725 153.759C108.725 153.759 104.723 124.813 102.065 119.668C102.024 119.579 101.977 119.494 101.926 119.411C101.536 118.771 101.106 117.496 100.654 115.79C98.041 105.926 94.7002 81.6108 94.7002 81.6108L92.6163 51.4739C87.2872 42.7746 70.7266 43.076 70.7266 43.076L70.3113 44.8033Z" fill="#67647E"/>
<path opacity="0.1" d="M45.3274 46.3212L56.2318 74.6829L66.46 118.786C66.46 118.786 67.5038 140.528 71.2378 137.162C72.458 136.059 74.7072 135.457 77.1807 135.144C77.1366 127.669 76.9087 114.254 75.8319 108.616C74.9 103.465 74.5108 98.2295 74.6705 92.9966L61.3147 63.8998C61.3147 63.8998 51.2703 51.5179 51.2078 49.7465C51.1857 49.0923 51.8987 47.8795 52.8028 46.6042C51.3732 45.2076 50.4727 44.2373 50.4727 44.2373L45.3274 46.3212Z" fill="black"/>
<path d="M78.8965 172.249L76.4451 140.396C76.4451 140.396 76.6289 116.628 75.0963 108.605C74.1645 103.454 73.7752 98.2184 73.9349 92.9855L60.5791 63.8887C60.5791 63.8887 50.5347 51.5068 50.4722 49.7354C50.4097 47.9639 55.7352 42.0725 55.7352 42.0725C55.7352 42.0725 44.103 43.4323 42.5705 48.6365C41.0379 53.8406 32.6473 55.8657 32.6473 55.8657C32.6473 55.8657 28.6046 59.5409 28.6671 70.0778C28.7295 80.6147 41.5304 88.8803 41.5304 88.8803C41.5304 88.8803 43.673 108.727 41.8354 117.672C39.9978 126.618 41.5929 170.103 41.5929 170.103C41.5929 170.103 53.9049 170.228 61.6229 172.249C69.3409 174.271 78.8965 172.249 78.8965 172.249Z" fill="#67647E"/>
<path d="M60.7632 121.726L51.3325 157.435C51.3325 157.435 50.0462 160.621 43.4308 158.17C36.8154 155.718 17.5792 147.758 17.5792 147.758C17.5792 147.758 15.8665 144.939 19.0493 139.735L28.6674 111.557L60.7632 121.726Z" fill="#82CFCB"/>
<path d="M48.5576 137.515L33.3054 120.745L23.566 116.794L19.5711 136.96L38.0832 157.082L48.5576 137.515Z" fill="#E1E7EF"/>
<path d="M32.2612 143.119C32.2612 143.119 36.7965 145.788 37.9946 145.876C39.1927 145.964 43.4082 153.932 41.6257 153.869C39.8433 153.807 35.6976 151.664 36.1129 152.767C36.5282 153.869 39.2332 157.177 40.016 156.861C40.7988 156.545 41.1663 159.29 37.8108 158.331C34.4554 157.372 30.001 156.541 30.001 156.541C30.001 156.541 27.6121 154.796 27.5202 153.553C27.4283 152.311 25.3592 145.788 25.3592 145.788L32.2612 143.119Z" fill="#EFB7B9"/>
<path d="M105.072 49.0336C105.072 49.0336 101.147 40.5585 98.8018 37.758C96.457 34.9574 86.2289 31.9437 85.2035 32.7707C84.1781 33.5976 90.3488 38.2394 91.4514 38.8348C92.5539 39.4302 84.3288 44.9614 84.1597 45.0827C83.9906 45.204 77.728 44.5277 80.9439 46.641C84.1597 48.7543 93.6675 50.9043 93.6675 50.9043C94.3079 50.7936 94.9641 50.8148 95.5961 50.9664C96.228 51.1181 96.8224 51.3971 97.3428 51.7863C99.1841 53.1204 105.072 49.0336 105.072 49.0336Z" fill="#EFB7B9"/>
<path opacity="0.1" d="M23.4191 143.557C23.9378 145.261 24.635 146.906 25.4993 148.463C26.4181 147.633 35.1909 144.74 35.1909 144.74L34.217 143.237L32.6293 140.789C32.6293 140.789 24.8084 139.091 23.478 140.789C23.0296 141.352 23.1104 142.395 23.4191 143.557Z" fill="black"/>
<path d="M23.052 143.189C23.5706 144.894 24.2679 146.538 25.1321 148.096C26.0509 147.265 34.8237 144.373 34.8237 144.373L33.8498 142.87L32.2621 140.422C32.2621 140.422 24.4412 138.724 23.1108 140.422C22.6624 140.984 22.7432 142.028 23.052 143.189Z" fill="white"/>
<path opacity="0.1" d="M96.1082 50.9411C96.3901 51.5718 96.7219 52.1789 97.1005 52.7566C98.5155 54.9875 100.658 57.619 100.658 57.619C100.658 57.619 109.016 53.7747 109.016 53.6056C109.016 53.4366 106.48 49.4416 104.418 46.2919C103.584 45.0203 102.83 43.8957 102.352 43.2378C102.352 43.2378 99.2322 49.765 96.1523 49.8091C95.3291 49.8385 95.7738 50.1472 96.1082 50.9411Z" fill="black"/>
<path d="M96.4754 51.3085C96.7572 51.9392 97.0891 52.5463 97.4677 53.1241C98.8827 55.3549 101.025 57.9864 101.025 57.9864C101.025 57.9864 109.383 54.1421 109.383 53.9731C109.383 53.804 106.847 49.809 104.785 46.6593C103.951 45.3877 103.197 44.2631 102.72 43.6052C102.72 43.6052 99.5993 50.1324 96.5195 50.1765C95.6962 50.2059 96.1409 50.5147 96.4754 51.3085Z" fill="white"/>
<path d="M49.3409 118.723L50.4141 115.507L35.353 114.449L40.9797 115.048L48.1464 116.588L47.5952 118.723H49.3409Z" fill="#82CFCB"/>
<path opacity="0.1" d="M23.0513 143.189C24.7125 142.407 29.1448 140.778 33.8491 142.87L32.2614 140.422C32.2614 140.422 24.4405 138.724 23.1101 140.422C22.6617 140.984 22.7426 142.028 23.0513 143.189Z" fill="black"/>
<path d="M22.1734 123.317C22.2102 123.85 22.2432 124.383 22.2763 124.912C22.3682 126.533 22.4307 128.139 22.4711 129.69C22.6549 136.872 22.3572 142.796 22.3572 142.796C22.3572 142.796 28.0538 139.367 34.1179 142.245L34.7207 130.624V130.422L35.3418 125.339L37.3558 108.921C37.3558 108.921 41.1523 86.1349 42.3174 85.2786C43.4824 84.4223 33.6806 65.9836 33.6806 65.9836L28.6676 70.0779L25.5436 91.148V101.927C25.5436 101.927 21.5009 113.64 22.1734 123.317Z" fill="#67647E"/>
<path opacity="0.1" d="M96.2916 50.794L97.4677 53.1277C98.8827 55.3586 101.025 57.9901 101.025 57.9901C101.025 57.9901 109.383 54.1458 109.383 53.9767C109.383 53.8077 106.847 49.8127 104.785 46.663C104.149 45.928 103.763 45.5237 103.763 45.5237C106.215 51.5878 96.2916 50.794 96.2916 50.794Z" fill="black"/>
<path d="M89.1876 49.7467L92.6166 51.4667C92.6166 51.4667 96.8432 57.1633 98.067 57.7771C99.2909 58.3908 99.9046 58.3284 99.9046 58.3284L96.2919 51.1616C96.2919 51.1616 106.215 51.9555 103.764 45.8914C103.764 45.8914 114.852 58.0196 116.076 62.9224C116.076 62.9224 122.202 73.0881 120.732 78.1121C119.262 83.1362 113.319 84.1138 109.034 82.5849C104.749 81.056 91.5765 74.3156 91.5765 74.3156L89.1876 49.7467Z" fill="#67647E"/>
<path opacity="0.1" d="M101.499 61.6946C101.499 61.6946 110.746 72.0477 110.011 73.4553C109.276 74.8629 101.988 63.7784 101.499 61.6946Z" fill="black"/>
<path opacity="0.2" d="M59.7523 33.8254C59.7523 33.8254 46.7383 29.9039 39.3879 44.0536C32.0374 58.2032 31.7911 59.1845 32.1587 59.8571C32.5262 60.5296 46.7971 56.7956 47.5947 58.4494C48.3922 60.1033 39.5091 66.9025 39.5091 66.9025L73.9351 92.9966L59.4693 62.257C58.5001 60.1044 57.2074 58.1127 55.6361 56.3509C53.2582 53.69 50.0056 49.6142 51.1596 48.3573C52.174 47.2547 53.7948 44.377 55.9852 41.0656C57.5803 38.6399 60.1272 35.8982 59.7523 33.8254Z" fill="black"/>
<path d="M60.1199 33.4579C60.1199 33.4579 47.1059 29.5365 39.7554 43.6861C32.4049 57.8358 32.1587 58.8171 32.5262 59.4896C32.8937 60.1622 47.1647 56.4282 47.9622 58.082C48.7597 59.7359 39.8767 66.535 39.8767 66.535L73.9351 92.9967L59.8369 61.8896C58.8677 59.7369 57.575 57.7452 56.0036 55.9835C53.6257 53.3226 50.3731 49.2467 51.5272 47.9898C52.5415 46.8872 54.1623 44.0095 56.3527 40.6982C57.9478 38.2725 60.4947 35.5308 60.1199 33.4579Z" fill="#67647E"/>
<path opacity="0.1" d="M60.1199 33.4579C60.1199 33.4579 47.1059 29.5365 39.7554 43.6861C32.4049 57.8358 32.1587 58.8171 32.5262 59.4896C32.8937 60.1622 47.1647 56.4282 47.9622 58.082C48.7597 59.7359 39.8767 66.535 39.8767 66.535L73.9351 92.9967L59.1496 60.3937C58.576 59.1282 57.803 57.9631 56.8599 56.9427C54.5298 54.4362 50.2004 49.4121 51.5051 47.9898C52.5195 46.8872 54.1402 44.0095 56.3307 40.6982C57.9478 38.2725 60.4947 35.5308 60.1199 33.4579Z" fill="black"/>
<path d="M57.4555 98.3259C55.9676 98.3259 54.7615 97.1198 54.7615 95.6319C54.7615 94.1441 55.9676 92.938 57.4555 92.938C58.9433 92.938 60.1494 94.1441 60.1494 95.6319C60.1494 97.1198 58.9433 98.3259 57.4555 98.3259Z" fill="#444053"/>
<path d="M57.4555 115.048C55.9676 115.048 54.7615 113.842 54.7615 112.354C54.7615 110.866 55.9676 109.66 57.4555 109.66C58.9433 109.66 60.1494 110.866 60.1494 112.354C60.1494 113.842 58.9433 115.048 57.4555 115.048Z" fill="#444053"/>
<path d="M22.4706 129.69C24.0216 130.058 31.3757 129.892 34.7202 130.624V130.421L35.3413 125.339C31.5705 124.868 23.3748 123.975 22.2648 124.912C20.8278 126.136 20.622 129.267 22.4706 129.69Z" fill="#67647E"/>
<path opacity="0.1" d="M22.4706 130.058C24.0216 130.425 31.3757 130.26 34.7202 130.991V130.789L35.3413 125.706C31.5705 125.236 23.3748 124.343 22.2648 125.28C20.8278 126.504 20.622 129.635 22.4706 130.058Z" fill="black"/>
<path opacity="0.1" d="M22.4706 129.69C24.0216 130.058 31.3757 129.892 34.7202 130.624V130.421L35.3413 125.339C31.5705 124.868 23.3748 123.975 22.2648 124.912C20.8278 126.136 20.622 129.267 22.4706 129.69Z" fill="black"/>
<path d="M24.0733 128.863C23.1761 128.863 22.4488 128.136 22.4488 127.239C22.4488 126.342 23.1761 125.614 24.0733 125.614C24.9705 125.614 25.6978 126.342 25.6978 127.239C25.6978 128.136 24.9705 128.863 24.0733 128.863Z" fill="#444053"/>
<path opacity="0.1" d="M54.7617 133.729L47.9001 157.129C47.9001 157.129 46.0624 157.986 46.0624 156.457C46.0624 154.928 54.7617 133.729 54.7617 133.729Z" fill="white"/>
<path opacity="0.1" d="M57.3968 38.3863C57.8292 38.7352 58.2821 39.0579 58.7529 39.3529C61.0867 40.823 63.1632 42.8186 66.1365 42.8186C67.7876 42.8211 69.4279 42.5516 70.9915 42.0211C72.3807 36.5634 73.9941 31.8664 73.9941 31.8664C73.9941 31.8664 56.0296 15.0596 57.3343 28.8013C57.7937 33.6452 58.0841 35.9533 57.3968 38.3863Z" fill="black"/>
<path d="M51.046 26.993C51.046 29.9778 51.9312 32.8955 53.5895 35.3772C55.2478 37.8589 57.6048 39.7931 60.3625 40.9352C63.1201 42.0772 66.1545 42.3759 69.0819 41.7933C72.0093 41.2107 74.6981 39.7731 76.8084 37.6623C78.9187 35.5515 80.3557 32.8623 80.9375 29.9348C81.5194 27.0072 81.22 23.9729 80.0773 21.2156C78.9346 18.4582 76.9998 16.1016 74.5177 14.4439C72.0356 12.7862 69.1176 11.9018 66.1329 11.9025C62.1494 11.8849 58.322 13.45 55.4922 16.2536C52.6624 19.0572 51.0618 22.8699 51.0424 26.8533L51.046 26.993Z" fill="#EFB7B9"/>
<path d="M74.6884 39.6212C74.8305 39.9644 75.0775 40.2539 75.3941 40.4482L77.7903 41.9183L82.2705 44.6416L89.36 48.949C89.5266 49.047 89.6956 49.1389 89.8672 49.2246C90.6982 49.6468 91.615 49.873 92.5471 49.8857C93.4791 49.8985 94.4017 49.6975 95.244 49.2981C95.878 49.0097 96.4346 48.5753 96.8684 48.0304C97.3021 47.4855 97.6006 46.8456 97.7395 46.1632C97.9286 45.212 97.8493 44.2269 97.5105 43.3182C97.1717 42.4095 96.5867 41.613 95.821 41.0178C95.7831 40.9851 95.7377 40.9624 95.6887 40.9517C94.1803 40.5253 92.761 39.8306 91.499 38.9009L87.0372 35.8137L83.0533 32.1715L81.0393 30.7786C80.7441 30.574 80.3964 30.4584 80.0375 30.4453C79.6786 30.4323 79.3234 30.5225 79.0142 30.7051C76.9524 31.8886 72.8508 34.9794 74.6884 39.6212Z" fill="#E1E7EF"/>
<path d="M77.7905 41.8998L82.2706 44.6231C83.2041 40.8597 85.5783 38.2025 87.6401 36.1958L83.0681 32.1531C79.5914 33.8768 78.2095 39.6359 77.7905 41.8998Z" fill="white"/>
<path opacity="0.1" d="M89.8672 49.2062C90.6982 49.6284 91.615 49.8546 92.5471 49.8673C93.4791 49.8801 94.4017 49.6791 95.244 49.2797C95.8758 48.9931 96.431 48.5615 96.8646 48.02C97.2982 47.4785 97.598 46.8423 97.7395 46.1631C97.9286 45.212 97.8493 44.2269 97.5105 43.3182C97.1717 42.4095 96.5867 41.613 95.821 41.0178C94.7081 41.4883 93.6781 42.1348 92.7706 42.9326C91.5041 44.0294 90.5868 45.4732 90.1318 47.0856C89.9588 47.7793 89.87 48.4913 89.8672 49.2062Z" fill="black"/>
<path opacity="0.1" d="M51.0462 26.9932C51.0436 29.191 51.5228 31.3626 52.4501 33.3551C53.3601 34.2618 54.0536 35.3623 54.4788 36.5746C55.5005 37.8168 55.9048 38.5188 57.2683 39.3788C57.8159 38.8128 59.0471 38.4453 59.2713 37.7102C59.841 35.7881 59.5176 33.7336 59.4882 31.7306C59.4882 30.8412 59.6131 29.7901 60.396 29.3638C61.0465 28.9962 61.8661 29.2609 62.5055 29.621C63.145 29.9812 63.7808 30.448 64.5159 30.5325C65.6185 30.6574 66.6255 29.882 67.2429 28.9705C67.8604 28.0591 68.2169 26.9932 68.8012 26.0597C69.573 24.8285 70.7123 23.884 71.8333 22.9652C73.1159 21.9067 74.3618 20.7343 75.729 19.7861C76.5449 19.2164 77.5225 18.9518 78.3274 18.3785L78.4561 18.2829C76.6062 15.6682 73.9724 13.7098 70.9358 12.6912C67.8991 11.6726 64.6171 11.6466 61.5647 12.617C58.5123 13.5874 55.8478 15.5038 53.9568 18.089C52.0658 20.6742 51.0464 23.794 51.0462 26.9969V26.9932Z" fill="black"/>
<path d="M80.7788 10.3149C80.4591 8.19429 78.7097 6.20598 76.567 6.16923C74.7992 6.13983 73.2924 7.33796 71.7267 8.15753C70.124 8.98374 68.3584 9.44515 66.5564 9.50869C64.7544 9.57223 62.9606 9.23633 61.3037 8.52506C60.3408 8.10608 59.3669 7.54377 58.3195 7.6283C57.272 7.71283 56.4341 8.4001 55.71 9.09839C53.9899 10.7995 52.642 12.8395 51.7518 15.089C51.4909 15.7506 51.252 16.4562 50.7448 16.9524C50.3578 17.2759 49.9363 17.5557 49.4879 17.7866C48.7179 18.298 48.0583 18.9586 47.5483 19.7294C47.0382 20.5002 46.688 21.3655 46.5183 22.2741C46.1839 24.0959 46.3712 25.9751 47.0585 27.6951C47.4655 28.8791 48.1366 29.955 49.0211 30.8411C49.69 31.4695 50.4912 31.9436 51.1932 32.5317C52.3368 33.5034 53.2088 34.7551 53.7242 36.1645C54.2395 37.5739 54.3805 39.0929 54.1334 40.5731C56.0886 41.0251 57.963 39.2721 58.5436 37.3536C59.1243 35.4351 58.7899 33.377 58.7605 31.374C58.7605 30.4846 58.8854 29.4335 59.6683 29.0071C60.3188 28.6396 61.1384 28.9042 61.7778 29.2644C62.4173 29.6246 63.0532 30.0913 63.7882 30.1759C64.8908 30.3008 65.8978 29.529 66.5152 28.6139C67.1327 27.6987 67.4855 26.6366 68.0735 25.7031C68.8416 24.4719 69.9846 23.5274 71.1056 22.6086C72.3809 21.5391 73.6342 20.363 74.9977 19.4148C75.8172 18.8451 76.7949 18.5805 77.5997 18.0072C80.0291 16.2651 80.7788 13.086 80.7788 10.3149Z" fill="#171717"/>
<path opacity="0.1" d="M69.0949 35.5306C69.0949 35.5306 69.3007 35.5784 69.6572 35.6776C69.4863 35.5792 69.2921 35.5284 69.0949 35.5306Z" fill="black"/>
<g opacity="0.1">
<path opacity="0.1" d="M57.8012 36.1372C58.3709 34.2151 58.0475 32.1606 58.0181 30.1576C58.0181 29.2682 58.143 28.2171 58.9259 27.7908C59.5764 27.4233 60.396 27.6916 61.0355 28.0481C61.6749 28.4046 62.3108 28.8897 63.0458 28.9595C64.1484 29.0845 65.1554 28.3127 65.7728 27.4012C66.3903 26.4898 66.7431 25.4203 67.3311 24.4868C68.1029 23.2592 69.2423 22.3147 70.3632 21.3922C71.6459 20.3374 72.8918 19.1613 74.2553 18.2315C75.0748 17.6618 76.0525 17.4009 76.8573 16.8239C79.294 15.0818 80.0438 11.9064 80.0438 9.13163C79.9599 8.60517 79.7964 8.09457 79.5586 7.61743C80.2022 8.36405 80.6247 9.27534 80.7788 10.2489C80.7788 13.0237 80.0438 16.1991 77.5924 17.9412C76.7875 18.5182 75.8099 18.7791 74.9903 19.3488C73.6268 20.297 72.3809 21.4731 71.0982 22.5279C69.9773 23.4503 68.838 24.3949 68.0662 25.6224C67.4781 26.5559 67.129 27.6254 66.5079 28.5369C65.8868 29.4483 64.8761 30.2201 63.7809 30.0952C63.0458 30.0106 62.421 29.5402 61.7705 29.1837C61.12 28.8272 60.3004 28.5736 59.6609 28.9264C58.8781 29.3528 58.7384 30.3965 58.7531 31.2933C58.7825 33.2963 59.1206 35.336 58.5363 37.2729C57.9519 39.2097 56.0886 40.9481 54.126 40.4924C54.1872 40.1473 54.2264 39.7987 54.2436 39.4486C55.8754 39.2869 57.3124 37.7764 57.8012 36.1372Z" fill="black"/>
<path opacity="0.1" d="M48.2862 29.6247C48.9551 30.2568 49.7563 30.7272 50.4583 31.3153C51.2321 31.9641 51.881 32.7488 52.373 33.6307C52.0247 33.185 51.6292 32.7783 51.1933 32.4178C50.4877 31.8298 49.6901 31.3594 49.0212 30.7272C48.4882 30.2134 48.037 29.621 47.6834 28.9705C47.8678 29.2032 48.0693 29.4219 48.2862 29.6247Z" fill="black"/>
</g>
<path opacity="0.1" d="M68.5948 160.83C68.8631 161.628 69.2453 162.407 69.2967 163.249C69.3849 164.682 68.5102 166.012 68.4478 167.449C68.3743 169.114 69.3886 170.61 70.3589 171.97C69.2085 171.97 67.9516 171.569 67.3672 170.581C67.1693 170.199 67.0246 169.792 66.9372 169.372C65.8972 165.222 64.8865 160.683 66.6947 156.81C66.9733 156.14 67.3789 155.531 67.8891 155.016C68.1942 156.957 67.9369 158.879 68.5948 160.83Z" fill="black"/>
<path opacity="0.1" d="M97.343 131.532L100.397 127.412C101.132 126.416 101.893 125.379 102.158 124.17C102.444 122.843 102.11 121.469 102.066 120.127V119.668C102.024 119.579 101.978 119.494 101.926 119.411C101.536 118.771 101.106 117.496 100.654 115.791C100.21 116.234 99.8641 116.766 99.64 117.353C98.2177 120.822 99.5334 124.894 98.3573 128.452C98.0192 129.473 97.4679 130.451 97.343 131.532Z" fill="black"/>
<path opacity="0.1" d="M89.5698 256.247C88.0587 257.33 86.3333 258.077 84.5095 258.437C82.6857 258.798 80.8058 258.764 78.9962 258.338" fill="black"/>
<path opacity="0.1" d="M64.2622 256.853C63.5197 257.548 62.6477 258.089 61.696 258.446C60.7443 258.804 59.7315 258.97 58.7155 258.936C57.6995 258.902 56.7001 258.668 55.7745 258.247C54.849 257.827 54.0153 257.228 53.321 256.486C53.2071 256.364 53.0968 256.236 52.9903 256.118" fill="black"/>
<path opacity="0.1" d="M80.389 201.449C81.8551 201.789 83.392 201.644 84.7685 201.036C86.1451 200.427 87.287 199.388 88.0225 198.075" fill="black"/>
<path opacity="0.1" d="M62.9688 210.736C60.6399 210.909 58.3226 210.273 56.4085 208.936L62.9688 210.736Z" fill="black"/>
<path opacity="0.1" d="M74.8577 232.935C76.8166 233.729 78.566 234.971 80.4735 235.875C82.3809 236.779 84.5897 237.371 86.6074 236.739" fill="black"/>
</svg>
