<svg width="330" height="269" viewBox="0 0 330 269" fill="none" xmlns="http://www.w3.org/2000/svg">
    <defs>
        <linearGradient id="paint0_linear" x1="29.233" y1="106.979" x2="98.3279" y2="106.979" gradientUnits="userSpaceOnUse">
            <stop offset="0.08" stop-color="#E62159"/>
            <stop offset="1" stop-color="#952A77"/>
        </linearGradient>
        <linearGradient id="paint1_linear" x1="-281064" y1="15467.3" x2="-282167" y2="15467.3" gradientUnits="userSpaceOnUse">
            <stop offset="0.08" stop-color="#E62159"/>
            <stop offset="1" stop-color="#952A77"/>
        </linearGradient>
        <linearGradient id="paint2_linear" x1="94.9496" y1="154.051" x2="137.954" y2="154.051" gradientUnits="userSpaceOnUse">
            <stop stop-color="#822F70"/>
            <stop offset="0.250301" stop-color="#AB277D"/>
            <stop offset="0.739562" stop-color="#E0232F"/>
            <stop offset="1" stop-color="#E0232F"/>
        </linearGradient>
        <clipPath id="clip0">
            <rect width="115.608" height="188.301" fill="white" transform="translate(0 63.1831)"/>
        </clipPath>
        <clipPath id="clip1">
            <rect width="140.611" height="109.782" fill="white" transform="translate(63.696 142.911)"/>
        </clipPath>
    </defs>
    <path d="M159.727 184.545H78.1357C72.4046 184.545 67.7585 189.191 67.7585 194.922V196.478C67.7585 202.21 72.4046 206.856 78.1357 206.856H159.727C165.458 206.856 170.104 202.21 170.104 196.478V194.922C170.104 189.191 165.458 184.545 159.727 184.545Z" fill="#4C4A6A"/>
<path d="M156.614 200.458H78.7847C67.0684 200.405 55.784 196.03 47.0947 188.17C38.4054 180.311 32.9229 169.521 31.6981 157.868L30.4874 145.762V145.416C29.0376 130.052 29.517 114.568 31.9143 99.3236L41.9456 34.466C43.3361 25.2307 48.0016 16.8036 55.0903 10.723C62.179 4.64237 71.2181 1.31399 80.5575 1.34544H154.841C164.18 1.31399 173.219 4.64237 180.308 10.723C187.397 16.8036 192.062 25.2307 193.453 34.466L203.441 99.3236C205.874 114.564 206.368 130.051 204.911 145.416V145.762L203.7 157.868C202.476 169.521 196.993 180.311 188.304 188.17C179.614 196.03 168.33 200.405 156.614 200.458Z" fill="#34344E"/>
<mask id="mask0" mask-type="alpha" maskUnits="userSpaceOnUse" x="29" y="1" width="177" height="200">
<path d="M156.614 200.458H78.7847C67.0684 200.405 55.7839 196.03 47.0947 188.17C38.4054 180.311 32.9229 169.521 31.6981 157.868L30.4874 145.762V145.416C29.0376 130.052 29.517 114.568 31.9143 99.3236L41.9456 34.466C43.3361 25.2307 48.0015 16.8036 55.0903 10.723C62.179 4.64237 71.2181 1.31399 80.5574 1.34544H154.841C164.18 1.31399 173.219 4.64237 180.308 10.723C187.397 16.8036 192.062 25.2307 193.453 34.466L203.441 99.3236C205.874 114.564 206.368 130.051 204.911 145.416V145.762L203.7 157.868C202.476 169.521 196.993 180.311 188.304 188.17C179.614 196.03 168.33 200.405 156.614 200.458Z" fill="#34344E"/>
</mask>
<g mask="url(#mask0)">
<path d="M216.153 60.2388C216.153 141.138 185.367 169.113 118.564 169.113C51.7609 169.113 20.8022 141.138 20.8022 60.2388C20.8022 -20.6601 51.588 -86.1663 118.434 -86.1663C185.281 -86.1663 216.153 -20.6169 216.153 60.2388Z" fill="#4C4A6A"/>
</g>
<path d="M52.4952 34.4678L50.0306 145.98L51.2413 158.086C52.4561 169.746 57.9344 180.547 66.6246 188.415C75.3149 196.284 86.6049 200.665 98.3279 200.719H78.4382C66.7153 200.665 55.4252 196.284 46.735 188.415C38.0447 180.547 32.5665 169.746 31.3517 158.086L30.141 145.98C28.6406 130.956 29.0474 115.803 31.3517 100.882L41.5559 34.6408C42.8012 26.5723 46.5526 19.0998 52.279 13.281L52.4952 34.4678Z" fill="url(#paint0_linear)"/>
<path d="M182.555 34.1626L185.106 145.718L183.896 157.824C182.671 169.477 177.188 180.267 168.499 188.126C159.81 195.986 148.525 200.361 136.809 200.414H156.699C168.4 200.34 179.663 195.955 188.334 188.097C197.006 180.24 202.476 169.462 203.699 157.824L204.91 145.718C206.425 130.637 206.018 115.425 203.699 100.447L193.495 34.3788C192.258 26.295 188.506 18.8062 182.771 12.9758L182.555 34.1626Z" fill="url(#paint1_linear)"/>
<path d="M41.5562 34.6392L31.352 100.88C29.0473 115.802 28.6405 130.955 30.1413 145.978L31.352 158.085C32.521 169.759 37.9869 180.583 46.6884 188.453C55.3898 196.323 66.7057 200.679 78.4386 200.674H84.9676C73.272 200.626 62.0092 196.246 53.3534 188.381C44.6975 180.515 39.2624 169.722 38.0972 158.085L36.8865 145.978C35.8612 132.557 35.5292 119.092 35.892 105.637C35.892 102.48 35.892 99.2805 36.3244 96.1241L41.5562 34.6392Z" fill="#CFDCED"/>
<path d="M73.4467 154.008C78.0505 152.65 80.4193 146.926 78.7375 141.223C77.0557 135.519 71.9602 131.996 67.3563 133.354C62.7524 134.712 60.3836 140.436 62.0655 146.139C63.7473 151.842 68.8428 155.365 73.4467 154.008Z" fill="white"/>
<path d="M173.498 146.102C175.18 140.399 172.811 134.675 168.207 133.317C163.603 131.96 158.508 135.483 156.826 141.186C155.144 146.889 157.513 152.613 162.117 153.971C166.72 155.328 171.816 151.806 173.498 146.102Z" fill="white"/>
<g style="mix-blend-mode:multiply" opacity="0.75">
<path d="M130.758 24.782H107.409C104.925 24.782 102.912 26.7953 102.912 29.2788V29.9706C102.912 32.4541 104.925 34.4674 107.409 34.4674H130.758C133.241 34.4674 135.254 32.4541 135.254 29.9706V29.2788C135.254 26.7953 133.241 24.782 130.758 24.782Z" fill="#8BA1B7"/>
</g>
<g opacity="0.42">
<g style="mix-blend-mode:multiply" opacity="0.42">
<path d="M143.125 184.848H92.3631C91.5965 184.848 90.8375 184.697 90.1293 184.404C89.4211 184.111 88.7776 183.681 88.2355 183.139C87.6935 182.597 87.2636 181.953 86.9702 181.245C86.6769 180.537 86.5259 179.778 86.5259 179.011V161.24C86.5255 160.203 86.8096 159.186 87.3474 158.3C88.0181 157.23 89.0772 156.461 90.3025 156.154C91.5278 155.848 92.8242 156.028 93.9196 156.657C96.2977 157.954 102.308 159.64 117.441 159.64C132.575 159.64 139.06 157.695 141.612 156.397C142.492 155.89 143.511 155.676 144.521 155.785C145.531 155.893 146.48 156.32 147.233 157.003C147.794 157.57 148.234 158.246 148.524 158.99C148.814 159.734 148.948 160.529 148.919 161.327V179.098C148.907 180.627 148.292 182.089 147.207 183.167C146.121 184.244 144.654 184.848 143.125 184.848V184.848Z" stroke="#4C4A6A" stroke-width="1.3714" stroke-miterlimit="10"/>
</g>
</g>
<g opacity="0.42">
<g style="mix-blend-mode:multiply" opacity="0.42">
<path d="M117.743 159.687V184.938" stroke="#4C4A6A" stroke-width="1.3714" stroke-miterlimit="10"/>
</g>
</g>
<path d="M166.386 107.41H68.8831L71.5638 43.5039H163.748L166.386 107.41Z" fill="#8BA1B7"/>
<g opacity="0.62">
<g opacity="0.62">
<g opacity="0.62">
<path opacity="0.62" d="M89.0252 107.313H69.8706L105.482 44.228H124.637L89.0252 107.313Z" fill="white"/>
</g>
<path opacity="0.62" d="M102.713 107.312H95.8813L131.538 44.2283H138.37L102.713 107.312Z" fill="white"/>
</g>
</g>
<path d="M76.8381 53.1414V104.163" stroke="#4C4A6A" stroke-width="1.3714" stroke-linecap="round" stroke-linejoin="round"/>
<path d="M119.041 116.662L76.0623 80.6016" stroke="#37364F" stroke-width="2.74281" stroke-linecap="round" stroke-linejoin="round"/>
<g opacity="0.42">
<g style="mix-blend-mode:multiply" opacity="0.42">
<path d="M139.017 128.338V119.691C138.918 118.715 138.442 117.817 137.691 117.187C136.94 116.557 135.973 116.245 134.995 116.318H128.899C128.77 116.312 128.642 116.332 128.521 116.378C128.401 116.423 128.291 116.492 128.198 116.581C128.105 116.67 128.031 116.777 127.981 116.895C127.93 117.013 127.904 117.141 127.904 117.269V119.431C127.904 119.683 127.804 119.925 127.626 120.104C127.447 120.282 127.205 120.382 126.953 120.382H108.058C107.806 120.382 107.564 120.282 107.385 120.104C107.207 119.925 107.107 119.683 107.107 119.431V117.269C107.107 117.141 107.081 117.013 107.03 116.895C106.98 116.777 106.906 116.67 106.813 116.581C106.72 116.492 106.61 116.423 106.489 116.378C106.369 116.332 106.241 116.312 106.112 116.318H100.102C99.6133 116.277 99.1213 116.332 98.6543 116.482C98.1872 116.631 97.7544 116.872 97.3806 117.189C97.0069 117.507 96.6996 117.895 96.4765 118.332C96.2535 118.768 96.119 119.245 96.0808 119.734V128.381" stroke="#4C4A6A" stroke-width="1.3714" stroke-miterlimit="10"/>
</g>
</g>
<path d="M94.509 140.228H135.651L131.537 153.942H94.509V140.228Z" fill="white"/>
<path fill-rule="evenodd" clip-rule="evenodd" d="M95.3153 132.052C94.8265 132.072 94.5093 132.292 94.5093 132.764V153.804C94.5093 154.171 94.7785 154.503 95.1921 154.503H133.588C133.933 154.503 134.208 154.472 134.37 154.026C134.37 154.026 138.262 142.114 138.33 141.898C138.474 141.447 138.381 141.22 137.988 140.974C125.482 133.138 106.783 131.998 98.2901 131.998C97.0721 131.998 96.0653 132.021 95.3153 132.052ZM117.528 143.611C118.926 142.139 121.082 141.304 123.562 141.304C124.363 141.304 125.179 141.347 125.853 141.448L125.3 143.034C124.754 142.965 124.149 142.929 123.56 142.929C120.764 142.929 118.673 144.256 118.357 146.357C118.224 147.238 118.438 148.028 118.974 148.641C119.688 149.457 120.947 149.823 122.52 149.823C123.251 149.823 123.95 149.754 124.517 149.614L127.181 141.462H135.035L134.549 142.973H128.956L128.148 145.445H132.841L132.363 146.903H127.671L126.45 150.667C125.981 150.913 124.097 151.447 122.013 151.447C118.79 151.447 116.515 149.944 116.16 147.707C116.155 147.674 116.129 147.663 116.088 147.663C116.05 147.663 116.023 147.67 116.011 147.707L114.845 151.269H112.487C111.718 148.457 110.282 145.794 108.836 143.769L107.402 148.119C107.391 148.153 107.371 148.163 107.331 148.163C107.292 148.163 107.265 148.156 107.253 148.119C107.037 147.502 106.776 147.068 105.95 146.467L107.592 141.462H109.791C111.585 143.64 113.051 146.309 113.764 148.338L116.005 141.462H118.052L117.351 143.611C117.34 143.648 117.369 143.655 117.413 143.655H117.418C117.445 143.655 117.487 143.654 117.528 143.611ZM101.796 146.977C103.179 147.618 104.273 148.228 103.888 149.029C103.604 149.618 102.704 149.912 101.393 149.912C101.325 149.912 101.256 149.911 101.186 149.91C99.9533 149.882 98.4144 149.536 97.2029 148.939L96.4814 150.464C97.3727 150.869 99.2108 151.419 100.78 151.454C103.725 151.521 105.632 150.796 106.396 149.226C107.283 147.404 105.138 146.391 103.356 145.55C103.323 145.534 103.291 145.519 103.258 145.504C103.101 145.429 102.949 145.359 102.804 145.292C101.649 144.757 100.913 144.416 101.119 143.821C101.393 143.028 102.81 142.727 104.094 142.756C104.743 142.771 105.205 142.852 105.734 142.971L106.201 141.535C105.53 141.415 105.05 141.354 104.25 141.335C101.675 141.277 99.3477 141.972 98.7502 143.442C98.0405 145.187 100.052 146.169 101.796 146.977Z" fill="url(#paint2_linear)"/>
<path d="M193.496 34.425L203.701 100.666C206.027 115.586 206.434 130.741 204.911 145.764L203.701 157.871C202.476 169.523 196.993 180.313 188.304 188.172C179.615 196.032 168.33 200.407 156.614 200.46H150.085C161.801 200.407 173.086 196.032 181.775 188.172C190.464 180.313 195.947 169.523 197.172 157.871L198.382 145.764C199.429 132.344 199.761 118.878 199.377 105.422C199.377 102.223 199.377 99.0664 198.944 95.8668L193.496 34.425Z" fill="#CFDCED"/>
<g clip-path="url(#clip0)">
<path d="M52.6655 227.923H82.1541V246.343C82.1541 247.776 81.5847 249.151 80.5711 250.165C79.5575 251.178 78.1827 251.748 76.7493 251.748H58.0271C56.6012 251.736 55.2375 251.162 54.2332 250.149C53.229 249.137 52.6655 247.769 52.6655 246.343V227.923Z" fill="#4C4A6A"/>
<path d="M109.349 105.599V102.789C109.349 100.495 108.438 98.2955 106.816 96.6737C105.194 95.052 102.995 94.1409 100.701 94.1409H94.9937V98.4647H100.658C101.805 98.4647 102.904 98.9203 103.715 99.7311C104.526 100.542 104.982 101.642 104.982 102.789V105.599C103.296 106.087 101.815 107.11 100.762 108.514C99.7086 109.918 99.141 111.627 99.1445 113.382V130.029C99.1445 132.185 100.001 134.252 101.525 135.777C103.05 137.301 105.117 138.158 107.273 138.158C109.429 138.158 111.497 137.301 113.021 135.777C114.546 134.252 115.402 132.185 115.402 130.029V113.382C115.385 111.601 114.784 109.874 113.69 108.468C112.597 107.062 111.071 106.054 109.349 105.599Z" fill="#4C4A6A"/>
<path d="M23.1769 63.0115H16.129C-14.6522 63.0115 -39.6052 87.9646 -39.6052 118.746V176.037C-39.6052 206.818 -14.6522 231.771 16.129 231.771H23.1769C53.958 231.771 78.9111 206.818 78.9111 176.037V118.746C78.9111 87.9646 53.958 63.0115 23.1769 63.0115Z" fill="#CFDCED"/>
<path d="M-35.4561 237.779C-48.4276 237.779 -58.5886 226.104 -58.5886 211.836V94.5733C-58.5886 82.6395 -50.8057 72.9541 -41.2933 72.9541H80.5957C90.1514 72.9541 97.891 82.6395 97.891 94.5733V211.793C97.891 226.104 87.5138 237.736 74.7585 237.736L-35.4561 237.779Z" fill="#F0F4F7"/>
<path d="M-31.0007 216.464C-36.6427 216.464 -42.0537 214.222 -46.0432 210.233C-50.0327 206.243 -52.274 200.832 -52.274 195.19V95.2665C-52.4982 90.8213 -50.9559 86.4676 -47.9833 83.1548C-45.0108 79.8421 -40.849 77.8389 -36.4055 77.582H75.5819C80.0408 77.8168 84.2245 79.8105 87.2155 83.1257C90.2065 86.4409 91.7606 90.8071 91.5368 95.2665V195.19C91.5368 200.832 89.2956 206.243 85.306 210.233C81.3165 214.222 75.9056 216.464 70.2636 216.464H-31.0007Z" fill="#1687C9"/>
<path d="M-28.2346 210.799C-33.567 210.799 -38.681 208.681 -42.4516 204.91C-46.2222 201.14 -48.3405 196.026 -48.3405 190.693V97.9901C-48.5412 93.7815 -47.0736 89.6636 -44.2564 86.5307C-41.4391 83.3977 -37.4997 81.5026 -33.2935 81.2568H72.5972C76.8111 81.4916 80.7615 83.382 83.588 86.5162C86.4144 89.6504 87.8879 93.7744 87.6874 97.9901V190.693C87.6874 196.026 85.5692 201.14 81.7986 204.91C78.028 208.681 72.914 210.799 67.5816 210.799H-28.2346Z" fill="#4C4A6A"/>
<path d="M87.7311 106.334H-48.3833V189.914H87.7311V106.334Z" fill="#8BA1B7"/>
<g opacity="0.7">
<g opacity="0.7">
<path opacity="0.7" d="M-1.41946 189.997H-42.7986L7.66317 106.342H49.0855L-1.41946 189.997Z" fill="white"/>
<path opacity="0.7" d="M26.5058 190H16.1719L66.9139 106.344H77.291L26.5058 190Z" fill="white"/>
</g>
</g>
<path d="M40.9035 222.823H-2.94019V232.638H40.9035V222.823Z" fill="#8BA1B7"/>
<g opacity="0.42">
<path opacity="0.42" d="M3.59237 206.299C5.26396 206.299 6.61906 204.944 6.61906 203.272C6.61906 201.6 5.26396 200.245 3.59237 200.245C1.92077 200.245 0.565674 201.6 0.565674 203.272C0.565674 204.944 1.92077 206.299 3.59237 206.299Z" fill="#CFDCED"/>
<path opacity="0.42" d="M79.9488 206.3C81.6204 206.3 82.9755 204.945 82.9755 203.274C82.9755 201.602 81.6204 200.247 79.9488 200.247C78.2772 200.247 76.9221 201.602 76.9221 203.274C76.9221 204.945 78.2772 206.3 79.9488 206.3Z" fill="#CFDCED"/>
</g>
<g opacity="0.42">
<path opacity="0.42" d="M89.7171 206.009C91.8424 206.009 93.5653 204.287 93.5653 202.161C93.5653 200.036 91.8424 198.313 89.7171 198.313C87.5918 198.313 85.8689 200.036 85.8689 202.161C85.8689 204.287 87.5918 206.009 89.7171 206.009Z" fill="#CFDCED"/>
</g>
<path d="M78.9122 229.999C81.4912 229.999 83.5819 227.908 83.5819 225.329C83.5819 222.75 81.4912 220.659 78.9122 220.659C76.3331 220.659 74.2424 222.75 74.2424 225.329C74.2424 227.908 76.3331 229.999 78.9122 229.999Z" fill="#8BA1B7"/>
<path d="M98.9296 195.231L67.8845 185.2" stroke="#4C4A6A" stroke-width="2.74281" stroke-linecap="round" stroke-linejoin="round"/>
<path d="M90.6716 185.719H30.2676" stroke="#4C4A6A" stroke-width="1.3714" stroke-linecap="round" stroke-linejoin="round"/>
<path d="M-4.92847 191.214L26.1167 181.183" stroke="#4C4A6A" stroke-width="2.74281" stroke-linecap="round" stroke-linejoin="round"/>
<path d="M3.33008 181.44H63.6908" stroke="#4C4A6A" stroke-width="1.3714" stroke-linecap="round" stroke-linejoin="round"/>
</g>
<g clip-path="url(#clip1)">
<path d="M83.1536 252.692H69.1444C67.9976 252.692 66.8979 252.237 66.087 251.426C65.2761 250.615 64.8206 249.515 64.8206 248.368V234.618H87.4775V248.368C87.4775 249.515 87.0219 250.615 86.211 251.426C85.4002 252.237 84.3004 252.692 83.1536 252.692Z" fill="#35354C"/>
<path d="M178.365 234.618H201.021V243.655C201.021 246.04 200.074 248.328 198.387 250.015C196.701 251.701 194.413 252.649 192.028 252.649H187.358C184.973 252.649 182.685 251.701 180.999 250.015C179.312 248.328 178.365 246.04 178.365 243.655V234.618Z" fill="#35354C"/>
<path d="M191.293 197.389H76.6682L83.9323 178.883L88.6452 166.82C89.27 165.137 90.1288 163.55 91.1963 162.107C94.5288 157.883 99.3007 155.035 104.6 154.108C123.705 150.865 143.219 150.865 162.323 154.108H163.318C168.657 154.991 173.471 157.846 176.808 162.107C177.906 163.554 178.78 165.157 179.403 166.863L184.072 178.84L191.293 197.389Z" fill="#65758D"/>
<path d="M82.5904 188.075L77.0259 182.511L74.2436 185.293L79.8081 190.858L82.5904 188.075Z" fill="#65758D"/>
<path d="M176.592 167.818C175.644 165.238 174.172 162.882 172.268 160.9C170.682 159.458 168.617 158.657 166.474 158.652H101.184C99.0274 158.63 96.948 159.452 95.3899 160.943C93.4941 162.915 92.0225 165.255 91.0661 167.818L86.7423 178.498L79.9971 195.793H187.228L180.44 178.498L176.592 167.818Z" fill="#A4BBCD"/>
<path d="M188.326 190.866L193.891 185.301L191.108 182.519L185.544 188.084L188.326 190.866Z" fill="#65758D"/>
<g opacity="0.42">
<g opacity="0.42">
<path opacity="0.42" d="M143.963 183.847H134.278L150.735 159.161H160.42L143.963 183.847Z" fill="white"/>
<path opacity="0.42" d="M96.0501 183.844L86.3647 185.216L102.736 159.159H112.421L96.0501 183.844Z" fill="white"/>
<path opacity="0.42" d="M120.651 183.847H102.232L118.689 159.161H137.108L120.651 183.847Z" fill="white"/>
<path opacity="0.42" d="M127.933 185.218H123.393L140.839 159.161H145.336L127.933 185.218Z" fill="white"/>
</g>
</g>
<path d="M78.6556 186.365L79.6069 181.176C79.732 180.478 79.657 179.758 79.3907 179.101C79.0332 178.226 78.356 177.52 77.4966 177.126C76.6372 176.732 75.6602 176.681 74.7642 176.982L67.6731 179.317C67.1753 179.484 66.764 179.842 66.5291 180.312C66.2941 180.782 66.2546 181.326 66.4192 181.825L67.1975 183.727C67.4018 184.244 67.7291 184.703 68.1511 185.065C68.573 185.426 69.0768 185.68 69.6188 185.803L76.3208 187.316L78.6556 186.365Z" fill="#65758D"/>
<path d="M189.434 186.365L188.482 181.176C188.357 180.478 188.432 179.758 188.698 179.101C189.065 178.213 189.757 177.498 190.634 177.104C191.51 176.71 192.504 176.667 193.411 176.982L200.546 179.317C200.799 179.404 201.031 179.541 201.23 179.719C201.428 179.898 201.589 180.115 201.702 180.357C201.815 180.599 201.878 180.862 201.888 181.129C201.897 181.396 201.852 181.662 201.756 181.911L200.978 183.814C200.784 184.337 200.46 184.802 200.036 185.165C199.613 185.528 199.103 185.777 198.557 185.889L191.855 187.403L189.434 186.365Z" fill="#65758D"/>
<path d="M161.632 216.414L152.336 219.095C151.979 219.161 151.612 219.161 151.255 219.095H110.049C109.706 219.16 109.354 219.16 109.011 219.095L99.2824 216.414C98.4602 216.187 97.7355 215.695 97.2199 215.015C96.7042 214.336 96.4263 213.505 96.4287 212.652V208.328C96.423 207.814 96.5194 207.303 96.7124 206.826C96.9054 206.349 97.1912 205.915 97.5531 205.549C97.915 205.183 98.3459 204.892 98.8209 204.694C99.2959 204.496 99.8055 204.394 100.32 204.394H160.551C161.066 204.394 161.575 204.496 162.05 204.694C162.525 204.892 162.956 205.183 163.318 205.549C163.68 205.915 163.966 206.349 164.159 206.826C164.352 207.303 164.448 207.814 164.443 208.328V212.652C164.448 213.5 164.176 214.326 163.669 215.005C163.161 215.684 162.446 216.179 161.632 216.414Z" fill="#8BA1B7"/>
<path d="M147.406 152.035L144.077 144.209C143.904 143.825 143.624 143.5 143.272 143.27C142.92 143.04 142.509 142.916 142.088 142.912H125.96C125.537 142.905 125.121 143.024 124.767 143.255C124.412 143.487 124.135 143.819 123.971 144.209L120.599 152.035C120.568 152.104 120.556 152.179 120.564 152.254C120.572 152.328 120.599 152.4 120.642 152.461C120.686 152.522 120.745 152.571 120.813 152.602C120.881 152.634 120.956 152.647 121.031 152.64H146.974C147.049 152.647 147.124 152.634 147.192 152.602C147.26 152.571 147.319 152.522 147.363 152.461C147.406 152.4 147.433 152.328 147.441 152.254C147.449 152.179 147.437 152.104 147.406 152.035Z" fill="#35354C"/>
<path d="M192.979 243.743H75.0675C72.0515 243.743 69.1591 242.545 67.0265 240.412C64.8939 238.28 63.6958 235.387 63.6958 232.371V214.168C63.7093 210.441 64.8554 206.807 66.9819 203.747L70.3977 199.121C71.1958 197.996 71.8495 196.776 72.3435 195.489C73.6589 192.324 75.8514 189.6 78.6627 187.639C81.474 185.678 84.7872 184.561 88.212 184.42L108.966 183.512C125.31 182.82 141.64 182.82 157.955 183.512L179.358 184.377C182.883 184.528 186.287 185.705 189.152 187.764C192.017 189.822 194.218 192.672 195.486 195.964C196.132 197.722 197.067 199.359 198.254 200.807L200.372 203.488C202.926 206.695 204.313 210.674 204.307 214.773V232.371C204.313 233.862 204.024 235.34 203.457 236.72C202.89 238.099 202.057 239.353 201.004 240.41C199.952 241.466 198.701 242.304 197.324 242.876C195.946 243.448 194.47 243.743 192.979 243.743Z" fill="#8BA1B7"/>
<g opacity="0.42">
<path opacity="0.42" d="M67.3278 203.448L66.9819 203.88C64.8803 206.904 63.7354 210.489 63.6958 214.171V232.374C63.6958 235.39 64.8939 238.283 67.0265 240.415C69.1591 242.548 72.0515 243.746 75.0675 243.746H192.978C194.47 243.746 195.946 243.452 197.324 242.88C198.701 242.308 199.952 241.469 201.004 240.413C202.057 239.356 202.89 238.102 203.457 236.723C204.024 235.344 204.313 233.866 204.307 232.374V214.776C204.323 210.663 202.935 206.666 200.372 203.448C178.453 207.236 156.246 209.117 134.001 209.069C111.657 209.112 89.3499 207.231 67.3278 203.448Z" fill="#35354C"/>
</g>
<path d="M150.907 228.955H115.582V237.257H150.907V228.955Z" fill="#35354C"/>
<path opacity="0.75" d="M179.49 239.331H192.807C193.954 239.331 195.054 238.876 195.864 238.065C196.675 237.254 197.131 236.154 197.131 235.008V228.651C197.131 227.505 196.675 226.405 195.864 225.594C195.054 224.783 193.954 224.328 192.807 224.328H192.288C191.723 224.334 191.165 224.452 190.645 224.674L179.1 229.387C178.403 229.671 177.792 230.133 177.328 230.727L176.074 232.327C175.569 232.966 175.255 233.734 175.167 234.544C175.08 235.353 175.223 236.171 175.58 236.903C175.937 237.635 176.493 238.251 177.185 238.681C177.876 239.11 178.675 239.336 179.49 239.331Z" fill="#35354C"/>
<path d="M187.574 236.133C189.508 236.133 191.076 234.565 191.076 232.631C191.076 230.697 189.508 229.129 187.574 229.129C185.64 229.129 184.072 230.697 184.072 232.631C184.072 234.565 185.64 236.133 187.574 236.133Z" fill="#E3F3FD"/>
<path opacity="0.75" d="M87.8666 239.331H74.5492C73.4024 239.331 72.3026 238.876 71.4918 238.065C70.6809 237.254 70.2253 236.154 70.2253 235.008V228.651C70.2253 227.505 70.6809 226.405 71.4918 225.594C72.3026 224.783 73.4024 224.328 74.5492 224.328H75.068C75.6157 224.326 76.1586 224.429 76.6679 224.63L88.2557 229.387C88.9534 229.671 89.5645 230.133 90.0285 230.727L91.2824 232.327C91.7873 232.966 92.1015 233.734 92.1889 234.544C92.2762 235.353 92.1332 236.171 91.7764 236.903C91.4194 237.635 90.8631 238.251 90.1715 238.681C89.4798 239.11 88.6808 239.336 87.8666 239.331Z" fill="#35354C"/>
<path d="M79.7821 236.133C81.7164 236.133 83.2844 234.565 83.2844 232.631C83.2844 230.697 81.7164 229.129 79.7821 229.129C77.8478 229.129 76.2798 230.697 76.2798 232.631C76.2798 234.565 77.8478 236.133 79.7821 236.133Z" fill="#E3F3FD"/>
<path d="M71.3484 206.646L90.9354 209.759L93.5297 214.602" stroke="#E3F3FD" stroke-width="2.74281" stroke-linecap="round" stroke-linejoin="round"/>
<path d="M196.437 206.645L176.894 209.758L174.299 214.601" stroke="#E3F3FD" stroke-width="2.74281" stroke-linecap="round" stroke-linejoin="round"/>
<path opacity="0.75" d="M161.632 216.414L152.336 219.095C151.979 219.161 151.612 219.161 151.255 219.095H110.049C109.706 219.16 109.354 219.16 109.011 219.095L99.2824 216.414C98.4602 216.187 97.7355 215.695 97.2199 215.015C96.7042 214.336 96.4263 213.505 96.4287 212.652V208.328C96.423 207.814 96.5194 207.303 96.7124 206.826C96.9054 206.349 97.1912 205.915 97.5531 205.549C97.915 205.183 98.3459 204.892 98.8209 204.694C99.2959 204.496 99.8055 204.394 100.32 204.394H160.551C161.066 204.394 161.575 204.496 162.05 204.694C162.525 204.892 162.956 205.183 163.318 205.549C163.68 205.915 163.966 206.349 164.159 206.826C164.352 207.303 164.448 207.814 164.443 208.328V212.652C164.448 213.5 164.176 214.326 163.669 215.005C163.161 215.684 162.446 216.179 161.632 216.414Z" fill="#35354C"/>
</g>
<path d="M303.303 119.342C303.303 119.342 295.648 119.422 296.951 123.662L299.873 125.357L302.784 124.765L304.15 122.35L303.303 119.342Z" fill="#65617D"/>
<path opacity="0.1" d="M303.303 119.342C303.303 119.342 295.648 119.422 296.951 123.662L299.873 125.357L302.784 124.765L304.15 122.35L303.303 119.342Z" fill="black"/>
<path d="M286.629 111.952C288.727 119.584 293.845 118.84 293.845 118.84L297.127 122.814L297.611 123.431L298.659 124.765L303.303 122.127L302.378 121.039L296.952 114.665C296.952 114.665 284.53 104.322 286.629 111.952Z" fill="#E2846D"/>
<path d="M286.161 114.548C286.183 114.58 286.227 114.588 286.259 114.566C286.291 114.544 286.299 114.501 286.277 114.469L285.697 113.623C285.675 113.591 285.631 113.583 285.599 113.605C285.567 113.627 285.559 113.67 285.581 113.702L286.161 114.548Z" fill="#3A3768"/>
<path d="M289.144 110.487C289.157 110.506 289.182 110.51 289.2 110.498C289.218 110.485 289.223 110.46 289.21 110.442L289.039 110.192C289.026 110.174 289.001 110.169 288.983 110.181C288.965 110.194 288.96 110.219 288.972 110.237L289.144 110.487Z" fill="#3A3768"/>
<path d="M290.127 112.197C290.141 112.217 290.169 112.223 290.19 112.208C290.21 112.194 290.215 112.166 290.201 112.146L289.872 111.673C289.858 111.652 289.83 111.647 289.81 111.661C289.789 111.676 289.784 111.704 289.798 111.724L290.127 112.197Z" fill="#3A3768"/>
<path d="M290.212 112.046C290.225 112.065 290.251 112.07 290.271 112.057C290.29 112.043 290.295 112.017 290.282 111.997L289.949 111.511C289.935 111.492 289.909 111.487 289.889 111.5C289.87 111.514 289.865 111.54 289.878 111.56L290.212 112.046Z" fill="#3A3768"/>
<path d="M290.262 119.423L293.238 117.382C293.494 117.207 293.559 116.857 293.384 116.601L288.579 109.595C288.404 109.339 288.054 109.274 287.798 109.45L284.823 111.49C284.567 111.666 284.502 112.015 284.677 112.271L289.481 119.277C289.657 119.533 290.006 119.598 290.262 119.423Z" fill="#3A3768"/>
<path d="M285.358 111.426C285.395 111.401 285.441 111.391 285.485 111.4C285.529 111.408 285.568 111.434 285.593 111.471L285.613 111.498C285.639 111.536 285.678 111.561 285.722 111.57C285.766 111.578 285.812 111.569 285.849 111.544L287.506 110.408C287.543 110.382 287.568 110.343 287.576 110.299C287.584 110.255 287.574 110.209 287.549 110.172L287.529 110.145C287.504 110.107 287.495 110.062 287.503 110.017C287.511 109.973 287.537 109.934 287.574 109.909L287.895 109.686C287.966 109.637 288.054 109.619 288.138 109.635C288.223 109.651 288.298 109.7 288.346 109.771L293.135 116.756C293.183 116.827 293.202 116.914 293.186 116.998C293.17 117.083 293.121 117.157 293.05 117.205L290.164 119.179C290.093 119.227 290.006 119.245 289.922 119.229C289.838 119.213 289.764 119.164 289.715 119.093L284.924 112.108C284.876 112.037 284.858 111.95 284.874 111.866C284.89 111.782 284.938 111.707 285.009 111.659L285.358 111.426Z" fill="#80808E"/>
<path d="M286.436 110.897L286.87 110.599C286.901 110.578 286.909 110.536 286.888 110.505C286.867 110.474 286.825 110.467 286.794 110.488L286.36 110.785C286.329 110.807 286.321 110.849 286.342 110.88C286.363 110.91 286.405 110.918 286.436 110.897Z" fill="#E6E8EC"/>
<path d="M286.199 111.055C286.241 111.055 286.276 111.021 286.276 110.978C286.276 110.936 286.241 110.902 286.199 110.902C286.157 110.902 286.122 110.936 286.122 110.978C286.122 111.021 286.157 111.055 286.199 111.055Z" fill="#E6E8EC"/>
<path d="M272.482 221.494C272.482 221.644 272.505 221.79 272.517 221.935C272.768 224.658 273.508 225.862 273.508 225.862C273.508 225.862 274.368 236.894 274.528 239.697C274.631 241.452 274.202 242.636 273.869 243.275C273.769 243.477 273.648 243.668 273.508 243.844L272.969 245.028L275.499 250.088L278.46 254.987L280.506 257.677C280.506 257.677 282.01 257.893 282.336 257.677C282.662 257.462 283.948 257.677 283.948 257.677L285.134 255.847L283.806 254.049L283.304 253.372C282.873 249.764 281.499 244.865 281.499 244.865V237.491C281.499 237.491 282.121 220.589 281.689 217.733C281.423 216.111 281.423 214.457 281.689 212.836C281.689 212.836 283.572 207.505 283.194 206.913C282.815 206.322 284.001 204.221 284.001 204.221L286.258 197.849L286.388 197.476L285.887 196.255L273.184 194.65C273.184 194.65 273.285 195.653 273.395 197.245V197.28C273.46 198.203 273.525 199.326 273.578 200.58C273.754 204.797 273.769 210.459 272.969 214.784C272.529 216.992 272.366 219.246 272.482 221.494Z" fill="#E2846D"/>
<path opacity="0.1" d="M272.517 221.935L273.184 220.91C274.424 219.717 275.796 218.669 277.274 217.788C279.591 216.442 280.127 213.275 280.032 212.836C279.937 212.397 280.355 208.323 280.355 208.323V197.978L273.407 197.225C273.683 201.255 274.022 209.138 272.981 214.777C272.407 217.836 272.359 220.195 272.517 221.935Z" fill="black"/>
<path d="M250.843 247.773L251.382 252.725L254.018 254.285C254.018 254.285 256.442 254.556 256.011 252.402C255.972 252.171 255.958 251.936 255.971 251.702C256.079 249.072 258.433 243.521 258.433 243.521C258.433 243.521 260.69 237.546 262.578 235.713C264.223 234.118 270.824 224.039 272.482 221.494L272.86 220.909C274.101 219.717 275.474 218.669 276.952 217.788C279.267 216.441 279.806 213.274 279.711 212.836C279.615 212.397 280.031 208.322 280.031 208.322V197.977L273.407 197.27L267.434 196.631C267.434 196.631 267.567 197.799 267.738 199.286C268.026 201.743 268.432 205.07 268.565 205.406C268.783 205.945 269.267 209.167 269.267 209.167C269.267 209.167 268.889 210.619 268.62 211.966C268.352 213.312 264.859 217.028 264.859 217.028C260.391 220.741 255.923 233.875 255.923 233.875C254.747 236.417 253.416 236.849 252.724 236.884C252.569 236.896 252.413 236.882 252.262 236.841L251.292 238.619L250.843 247.773Z" fill="#E2846D"/>
<path opacity="0.1" d="M272.969 245.028L275.498 250.088L278.46 254.987L280.506 257.678C280.506 257.678 282.01 257.893 282.336 257.678C282.662 257.462 283.948 257.678 283.948 257.678L285.134 255.847L283.805 254.05C284.154 254.852 284.44 255.852 283.735 255.9C282.552 255.983 280.102 256.978 278.703 253.613C277.304 250.248 275.443 248.741 275.443 248.741L273.961 245.136L273.866 243.275C273.766 243.477 273.645 243.668 273.505 243.845L272.969 245.028Z" fill="black"/>
<path d="M272.78 249.333C272.78 249.333 274.987 254.824 274.907 256.414H276.198L275.982 251.62L276.002 251.647C276.238 251.961 278.545 255.07 278.623 256.627C278.623 256.627 279.207 258.227 279.189 258.666C279.191 258.677 279.191 258.689 279.189 258.701C279.134 259.077 281.233 260.855 284.277 260.503C287.321 260.152 287.855 259.724 287.855 259.724C287.855 259.724 287.89 259.626 287.935 259.473C288.085 258.896 288.329 257.492 287.318 256.798C286.052 255.925 283.412 253.478 283.306 253.385C283.374 253.505 284.891 256.143 283.733 256.231C282.574 256.319 280.099 257.309 278.7 253.944C277.301 250.579 275.441 249.072 275.441 249.072L273.959 245.467L273.849 243.313C273.849 243.313 272.129 244.201 271.968 245.951C271.808 247.701 272.78 249.333 272.78 249.333Z" fill="#3F3D56"/>
<path opacity="0.1" d="M274.639 251.54C274.792 252.829 275.17 255.201 275.366 256.414H276.198L275.983 251.62L276.003 251.648L275.93 251.435C275.93 251.435 274.413 249.765 274.639 251.54Z" fill="black"/>
<path opacity="0.1" d="M279.177 258.701C279.121 259.077 281.22 260.854 284.264 260.503C287.308 260.152 287.842 259.724 287.842 259.724C287.842 259.724 287.877 259.626 287.922 259.473C286.027 259.496 280.967 259.473 279.179 258.673C279.179 258.682 279.178 258.692 279.177 258.701Z" fill="black"/>
<path opacity="0.1" d="M250.843 247.773L251.382 252.725L254.018 254.285C254.018 254.285 256.442 254.556 256.011 252.402C255.972 252.171 255.958 251.936 255.971 251.702C251.901 253.207 251.49 249.225 251.49 249.225L252.217 238.378C252.205 237.84 252.377 237.314 252.704 236.886C252.549 236.899 252.393 236.884 252.242 236.844L251.272 238.621L250.843 247.773Z" fill="black"/>
<path d="M245.217 246.399L245.987 246.951L246.348 247.202L249.444 243.596C249.444 243.596 249.444 247.713 248.878 248.709C248.494 249.386 248.434 250.627 248.434 251.354C248.434 251.695 248.447 251.923 248.447 251.923C248.447 251.923 249.389 253.929 253.534 256.409C255.394 257.52 256.48 257.329 257.109 256.782C257.884 256.11 257.975 254.902 257.975 254.902L256.219 251.923C251.912 253.678 251.483 249.544 251.483 249.544L252.21 238.697C252.263 237.055 253.303 236.764 253.303 236.764C248.477 236.578 248.253 240.525 248.253 240.525L245.217 246.399Z" fill="#3F3D56"/>
<path opacity="0.1" d="M245.99 246.951L246.348 247.207L249.445 243.601L249.094 242.551L245.99 246.951Z" fill="black"/>
<path opacity="0.1" d="M248.434 251.359C248.434 251.7 248.446 251.928 248.446 251.928C248.446 251.928 249.389 253.934 253.534 256.414C255.394 257.525 256.48 257.334 257.109 256.788C255.221 256.203 250.718 254.543 248.434 251.359Z" fill="black"/>
<path d="M255.858 192.621C258.253 193.446 259.69 188.266 260.372 184.886C260.688 183.309 260.836 182.128 260.836 182.128H256.428C256.428 182.128 256.177 182.722 255.833 183.633C254.856 186.305 253.238 191.716 255.858 192.621Z" fill="#FBBEBE"/>
<path d="M275.335 122.721L278.344 130.04V136.339C278.344 136.502 285.826 138.596 285.826 138.596L287.764 133.751C287.764 133.751 288.356 128.045 286.205 123.306C285.521 121.758 285.417 120.017 285.912 118.399C285.947 118.272 285.984 118.146 286.024 118.023C286.543 116.501 287.354 115.096 288.411 113.885C288.411 113.885 283.279 112.183 279.753 111.837C277.534 111.621 275.947 111.942 276.677 113.562C277.122 114.588 277.321 115.705 277.259 116.822C277.259 116.922 277.259 117.025 277.239 117.125C277.018 120.144 275.335 122.721 275.335 122.721Z" fill="#E2846D"/>
<path opacity="0.1" d="M276.684 113.567C277.13 114.593 277.329 115.709 277.266 116.826C277.266 116.927 277.266 117.03 277.246 117.13C277.252 117.137 277.258 117.143 277.266 117.147C278.536 118.28 280.137 118.976 281.832 119.131C282.065 119.153 282.303 119.163 282.542 119.163C283.709 119.167 284.863 118.91 285.919 118.411C285.954 118.284 285.992 118.159 286.032 118.035C286.551 116.514 287.362 115.109 288.419 113.898C288.419 113.898 283.286 112.195 279.761 111.849C277.542 111.626 275.955 111.947 276.684 113.567Z" fill="black"/>
<path d="M274.33 110.227C274.323 111.472 274.582 112.705 275.088 113.843C275.594 114.981 276.337 115.998 277.266 116.826C278.537 117.958 280.138 118.652 281.832 118.807C282.065 118.83 282.304 118.84 282.542 118.84C283.752 118.841 284.947 118.563 286.032 118.027C287.468 117.296 288.67 116.178 289.505 114.8C290.34 113.422 290.773 111.838 290.756 110.227C290.763 108.398 290.203 106.612 289.154 105.115C288.416 104.04 287.43 103.159 286.279 102.548C285.127 101.937 283.845 101.613 282.542 101.604C278.009 101.612 274.33 105.468 274.33 110.227Z" fill="#E2846D"/>
<path d="M285.565 138.061C285.565 138.061 280.551 133.485 279.159 129.341C278.272 126.752 277.155 124.248 275.822 121.859L276.193 121.084C276.193 121.084 278.244 126.543 279.751 127.187C281.258 127.831 284.766 131.547 285.081 134.132L285.297 126.272L285.636 121.084C285.636 121.084 288.203 126.543 288.419 129.072C288.634 131.602 288.364 136.178 287.556 137.146C287.31 137.433 287.004 137.663 286.661 137.821C286.317 137.979 285.944 138.061 285.565 138.061Z" fill="white"/>
<path d="M275.07 120.937L275.109 120.901L275.07 120.937Z" stroke="#00FFFF" stroke-width="1.63055" stroke-miterlimit="10"/>
<path opacity="0.1" d="M267.422 196.631C267.422 196.631 267.555 197.799 267.726 199.286C269.501 200.179 271.524 200.54 273.578 200.57C275.748 200.572 277.911 200.315 280.019 199.803C282.145 199.296 284.232 198.644 286.268 197.849L286.398 197.476L285.897 196.255L273.184 194.65C273.184 194.65 273.285 195.653 273.395 197.245V197.28L267.422 196.631Z" fill="black"/>
<path d="M265.271 190.538C265.306 190.618 265.344 190.714 265.379 190.816C266.053 192.797 266.562 208.553 266.562 208.553C273.668 213.48 286.345 207.666 287.095 207.503C287.845 207.34 287.095 206.131 287.095 206.131C287.095 206.131 289.495 186.097 289.254 184.24C289.013 182.382 289.818 174.752 289.818 174.752L290.209 171.582L291.285 162.588L283.048 160.813C283.048 160.813 272.971 161.836 269.759 163.032C269.61 163.086 269.463 163.148 269.32 163.218C268.335 163.704 267.455 165.311 266.745 167.117C266.312 168.212 265.943 169.373 265.647 170.416C265.135 172.222 264.863 174.086 264.84 175.963C264.77 180.398 264.727 189.329 265.271 190.538Z" fill="#3F3D56"/>
<path opacity="0.1" d="M265.271 190.036C265.306 190.117 265.344 190.212 265.379 190.315C265.84 187.12 266.276 177.494 266.186 174.345C266.078 170.584 270.062 162.608 270.062 162.608L269.747 162.541C269.597 162.595 269.451 162.656 269.308 162.726C267.723 163.508 266.414 167.192 265.637 169.925C265.124 171.73 264.851 173.595 264.827 175.471C264.769 179.896 264.727 188.83 265.271 190.036Z" fill="black"/>
<path opacity="0.1" d="M266.733 166.625C266.938 166.761 271.106 169.444 278.109 172.435C285.297 175.501 286.077 163.04 286.077 163.04C286.701 164.124 287.164 165.294 287.451 166.512C287.85 168.105 289.414 170.141 290.209 171.091L291.285 162.097L283.048 160.322C283.048 160.322 272.971 161.345 269.759 162.541C269.61 162.595 269.463 162.657 269.32 162.726C268.322 163.213 267.442 164.812 266.733 166.625Z" fill="black"/>
<path d="M262.578 139.739C263.062 140.814 262.578 141.973 262.578 141.973C262.578 141.973 269.711 148.136 270.062 147.085C270.413 146.035 270.564 148.863 270.564 148.863C270.564 148.863 271.266 149.59 271.105 149.966C270.945 150.342 271.238 152.496 271.238 152.496C271.238 152.496 271.614 153.788 271.346 154.058C271.078 154.329 270.674 156.566 270.674 156.566L269.711 160.141L269.543 160.282C268.039 161.518 267.846 163.672 267.414 164.211C266.983 164.75 266.717 166.309 266.717 166.309C266.717 166.309 270.915 169.055 278.101 172.124C285.287 175.193 286.069 162.729 286.069 162.729C286.695 163.809 287.16 164.975 287.451 166.189C287.99 168.343 290.655 171.304 290.655 171.304C293.24 170.873 295.444 163.794 294.88 163.391C294.316 162.987 292.716 157.819 292.716 157.819C290.186 154.294 292.465 146.97 292.465 146.97C292.465 146.97 294.78 141.075 294.752 140.107C294.725 139.14 295.291 139.104 295.291 139.104L296.934 127.854C296.934 127.854 294.677 126.911 294.484 126.129C294.291 125.347 291.064 124.489 291.064 124.489C291.064 124.489 291.282 124.166 289.908 123.707C289.426 123.506 288.977 123.232 288.579 122.894C287.53 122.04 286.537 121.119 285.608 120.136C285.608 120.136 285.47 123.341 286.139 125.194C286.809 127.047 287.298 132.52 287.35 132.924C287.403 133.327 285.412 137.552 285.412 137.552L284.357 136.106C282.692 133.829 279.625 129.647 279.412 129.451C279.114 129.183 276.534 121.984 276.175 121.087C276.042 120.758 275.857 120.653 275.674 120.65C275.529 120.654 275.389 120.699 275.27 120.781C275.207 120.819 275.148 120.863 275.092 120.911L275.029 121.084L275.014 121.119C274.96 121.267 274.896 121.411 274.824 121.55C273.094 124.945 266.64 127.375 266.64 127.375C264.568 128.102 264.217 129.574 264.217 129.574C264.217 129.574 264.594 130.875 263.761 131.522C262.929 132.169 263.277 133.944 263.277 133.944C263.277 133.944 262.146 136.502 262.437 136.878C262.665 137.201 262.865 137.543 263.034 137.901C263.034 137.901 262.094 138.653 262.578 139.739Z" fill="#65617D"/>
<path opacity="0.1" d="M283.492 141.211C283.492 141.211 294.502 142.933 293.99 138.202C293.524 133.887 289.477 124.81 288.76 123.23C287.71 122.376 286.717 121.455 285.786 120.472C285.786 120.472 285.651 123.677 286.318 125.53C286.985 127.382 287.476 132.854 287.529 133.257C287.581 133.661 285.591 137.888 285.591 137.888L283.492 141.211Z" fill="black"/>
<path opacity="0.1" d="M283.168 140.89C283.168 140.89 294.178 142.61 293.667 137.881C293.2 133.566 289.154 124.489 288.436 122.909C287.387 122.056 286.395 121.134 285.465 120.151C285.465 120.151 285.327 123.356 285.994 125.209C286.661 127.062 287.153 132.535 287.208 132.939C287.263 133.343 285.27 137.568 285.27 137.568L283.168 140.89Z" fill="black"/>
<path d="M283.332 140.89C283.332 140.89 294.339 142.61 293.827 137.881C293.363 133.566 289.314 124.489 288.597 122.909C287.548 122.056 286.555 121.134 285.626 120.151C285.626 120.151 285.488 123.356 286.157 125.209C286.827 127.062 287.316 132.535 287.368 132.939C287.421 133.343 285.43 137.568 285.43 137.568L283.332 140.89Z" fill="#65617D"/>
<path opacity="0.1" d="M274.511 121.876C274.511 121.909 274.529 122.378 274.551 123.1C274.594 124.494 274.661 126.861 274.697 129.09C274.737 131.673 274.737 134.05 274.611 134.456C274.315 135.399 275.767 137.74 275.767 137.74L283.008 141.211L284.957 138.114L284.052 136.427C282.387 134.15 279.32 129.968 279.107 129.772C279.012 129.687 278.681 128.889 278.267 127.816C277.384 125.537 276.113 122.017 275.87 121.407C275.765 121.203 275.585 121.046 275.369 120.969C275.295 120.955 275.22 120.96 275.15 120.984C275.079 121.007 275.016 121.047 274.965 121.102C274.865 121.201 274.781 121.314 274.714 121.438V121.45C274.64 121.584 274.578 121.724 274.529 121.869L274.511 121.876Z" fill="black"/>
<path opacity="0.1" d="M274.997 121.553C274.997 121.583 275.015 122.054 275.035 122.774C275.078 124.168 275.145 126.535 275.18 128.764C275.223 131.347 275.223 133.724 275.095 134.13C274.799 135.073 276.254 137.414 276.254 137.414L283.492 140.887L285.445 137.791L284.54 136.103C282.875 133.826 279.811 129.644 279.596 129.449C279.501 129.363 279.172 128.566 278.756 127.493C277.873 125.216 276.602 121.693 276.359 121.084C276.253 120.88 276.074 120.724 275.857 120.648C275.785 120.633 275.709 120.637 275.638 120.66C275.568 120.683 275.504 120.723 275.454 120.778C275.353 120.878 275.269 120.992 275.203 121.117C275.129 121.251 275.066 121.392 275.017 121.538L274.997 121.553Z" fill="black"/>
<path d="M274.834 121.553C274.834 121.583 274.852 122.054 274.874 122.774C274.917 124.168 274.982 126.535 275.02 128.764C275.06 131.347 275.06 133.724 274.932 134.13C274.638 135.073 276.09 137.415 276.09 137.415L283.331 140.887L285.277 137.788C285.277 137.788 284.934 137.141 284.374 136.101C282.71 133.824 279.643 129.642 279.43 129.446C279.335 129.361 279.004 128.564 278.59 127.49C277.707 125.214 276.436 121.691 276.193 121.082C276.088 120.877 275.908 120.721 275.691 120.645C275.619 120.631 275.543 120.635 275.473 120.658C275.402 120.681 275.338 120.721 275.288 120.776C275.187 120.874 275.102 120.989 275.037 121.114C274.963 121.249 274.901 121.39 274.852 121.535L274.834 121.553Z" fill="#65617D"/>
<path opacity="0.1" d="M284.327 143.527C284.662 143.527 284.934 143.057 284.934 142.477C284.934 141.897 284.662 141.426 284.327 141.426C283.992 141.426 283.72 141.897 283.72 142.477C283.72 143.057 283.992 143.527 284.327 143.527Z" fill="black"/>
<path d="M284.327 143.365C284.662 143.365 284.934 142.894 284.934 142.314C284.934 141.734 284.662 141.263 284.327 141.263C283.992 141.263 283.72 141.734 283.72 142.314C283.72 142.894 283.992 143.365 284.327 143.365Z" fill="white"/>
<path opacity="0.1" d="M285.884 154.791C286.219 154.791 286.491 154.32 286.491 153.74C286.491 153.16 286.219 152.689 285.884 152.689C285.549 152.689 285.277 153.16 285.277 153.74C285.277 154.32 285.549 154.791 285.884 154.791Z" fill="black"/>
<path opacity="0.1" d="M285.28 148.828C285.615 148.828 285.887 148.358 285.887 147.777C285.887 147.197 285.615 146.727 285.28 146.727C284.945 146.727 284.673 147.197 284.673 147.777C284.673 148.358 284.945 148.828 285.28 148.828Z" fill="black"/>
<path opacity="0.1" d="M286.491 159.798C286.826 159.798 287.097 159.327 287.097 158.747C287.097 158.167 286.826 157.697 286.491 157.697C286.155 157.697 285.884 158.167 285.884 158.747C285.884 159.327 286.155 159.798 286.491 159.798Z" fill="black"/>
<path d="M285.884 154.63C286.219 154.63 286.491 154.16 286.491 153.579C286.491 152.999 286.219 152.529 285.884 152.529C285.549 152.529 285.277 152.999 285.277 153.579C285.277 154.16 285.549 154.63 285.884 154.63Z" fill="white"/>
<path d="M285.28 148.667C285.615 148.667 285.887 148.197 285.887 147.617C285.887 147.037 285.615 146.566 285.28 146.566C284.945 146.566 284.673 147.037 284.673 147.617C284.673 148.197 284.945 148.667 285.28 148.667Z" fill="white"/>
<path d="M286.491 159.637C286.826 159.637 287.097 159.167 287.097 158.586C287.097 158.006 286.826 157.536 286.491 157.536C286.155 157.536 285.884 158.006 285.884 158.586C285.884 159.167 286.155 159.637 286.491 159.637Z" fill="white"/>
<path d="M273.423 129.193C273.58 129.073 274.313 128.907 275.02 128.767C275.727 128.626 276.449 128.516 276.449 128.516C277.055 127.988 277.797 127.64 278.59 127.513C277.708 125.236 276.436 121.714 276.193 121.104C276.088 120.9 275.909 120.744 275.692 120.668C275.619 120.654 275.544 120.658 275.473 120.681C275.402 120.704 275.339 120.744 275.288 120.798C275.187 120.897 275.102 121.011 275.037 121.137L274.889 122.784L274.849 123.225C274.849 123.225 273.678 123.79 273.922 124.73C274.165 125.67 273.099 129.436 273.423 129.193Z" fill="#82CFCB"/>
<path opacity="0.1" d="M285.636 121.247C285.636 121.247 289.617 126.971 289.575 128.102C289.532 129.233 288.93 128.102 288.93 128.102C288.93 128.102 287.248 123.105 285.285 126.891L285.636 121.247Z" fill="black"/>
<path d="M285.636 121.084C285.636 121.084 289.617 126.811 289.575 127.942C289.532 129.072 288.93 127.942 288.93 127.942C288.93 127.942 287.248 122.944 285.285 126.728L285.636 121.084Z" fill="white"/>
<path d="M296.36 128.455L296.951 127.874C296.951 127.874 298.499 128.455 298.734 129.208C298.97 129.96 299.622 129.764 299.622 129.764C299.902 129.911 300.201 130.019 300.509 130.085C300.76 130.085 301.116 131.216 301.116 131.216C301.116 131.216 303.659 131.863 303.874 131.903C304.09 131.943 314.047 141.198 314.047 141.198C314.047 141.198 308.315 142.078 307.427 141.714C306.54 141.351 305.65 141.288 305.206 141.198C304.762 141.108 294.75 138.969 294.75 138.969L296.36 128.455Z" fill="#65617D"/>
<path opacity="0.1" d="M297.611 123.441L298.659 124.775L303.303 122.137L302.377 121.049C301.55 122.305 300.076 123.657 297.611 123.441Z" fill="black"/>
<path d="M312.55 140.699L314.042 141.201C314.042 141.201 317.678 140.87 317.434 139.295C317.191 137.721 315.616 134.837 315.616 134.837L313.36 130.978C313.36 130.978 312.47 129.92 312.552 129.582C312.635 129.243 311.502 128.677 311.502 128.677C311.502 128.677 310.855 127.829 310.815 127.423C310.775 127.017 307.139 123.943 307.139 123.943C307.139 123.943 305.885 122.892 306.169 119.339H303.303C303.303 119.339 301.986 124.63 296.952 123.659L303.869 131.896L312.55 140.699Z" fill="#65617D"/>
<path opacity="0.1" d="M255.833 183.618C257.205 184.433 258.77 184.866 260.366 184.871C260.682 183.294 260.83 182.113 260.83 182.113H256.427C256.427 182.113 256.166 182.718 255.833 183.618Z" fill="black"/>
<path d="M263.857 140.889L262.578 141.965C262.578 141.965 262.829 142.557 262.392 142.88C261.956 143.204 262.392 145.666 262.392 145.666C262.381 145.997 262.257 146.314 262.041 146.566C261.678 146.997 262.041 151.197 262.041 151.197C261.939 151.406 261.787 151.586 261.598 151.721C261.347 151.842 260.627 155.801 260.83 156.001C261.033 156.202 257.761 165.732 257.761 165.732C257.761 165.732 257.842 167.387 257.398 167.671C256.954 167.954 256.874 169.849 256.874 169.849C256.874 169.849 257.074 171.544 256.267 171.868C255.46 172.191 255.299 177.926 255.299 177.926C255.299 177.926 254.208 180.872 253.562 181.356C253.562 181.356 256.631 185.556 262.565 184.345C262.565 184.345 262.816 179.054 263.533 176.955L265.675 166.256C265.675 166.256 266.966 161.693 267.45 159.191C267.934 156.688 270.062 147.078 270.062 147.078V143.648L263.857 140.889Z" fill="#65617D"/>
<path opacity="0.1" d="M257.561 170.737C257.717 170.737 257.844 170.485 257.844 170.173C257.844 169.861 257.717 169.609 257.561 169.609C257.404 169.609 257.278 169.861 257.278 170.173C257.278 170.485 257.404 170.737 257.561 170.737Z" fill="black"/>
<path opacity="0.1" d="M256.43 175.541C256.586 175.541 256.713 175.289 256.713 174.977C256.713 174.666 256.586 174.413 256.43 174.413C256.273 174.413 256.146 174.666 256.146 174.977C256.146 175.289 256.273 175.541 256.43 175.541Z" fill="black"/>
<path opacity="0.1" d="M255.582 179.942C255.739 179.942 255.866 179.689 255.866 179.378C255.866 179.066 255.739 178.813 255.582 178.813C255.426 178.813 255.299 179.066 255.299 179.378C255.299 179.689 255.426 179.942 255.582 179.942Z" fill="black"/>
<path opacity="0.1" d="M256.994 173.159C257.151 173.159 257.277 172.907 257.277 172.595C257.277 172.284 257.151 172.031 256.994 172.031C256.838 172.031 256.711 172.284 256.711 172.595C256.711 172.907 256.838 173.159 256.994 173.159Z" fill="black"/>
<path opacity="0.1" d="M255.863 177.843C256.02 177.843 256.147 177.591 256.147 177.279C256.147 176.967 256.02 176.715 255.863 176.715C255.707 176.715 255.58 176.967 255.58 177.279C255.58 177.591 255.707 177.843 255.863 177.843Z" fill="black"/>
<path d="M257.561 170.577C257.717 170.577 257.844 170.324 257.844 170.013C257.844 169.701 257.717 169.448 257.561 169.448C257.404 169.448 257.278 169.701 257.278 170.013C257.278 170.324 257.404 170.577 257.561 170.577Z" fill="white"/>
<path d="M256.43 175.381C256.586 175.381 256.713 175.128 256.713 174.817C256.713 174.505 256.586 174.253 256.43 174.253C256.273 174.253 256.146 174.505 256.146 174.817C256.146 175.128 256.273 175.381 256.43 175.381Z" fill="white"/>
<path d="M255.582 179.781C255.739 179.781 255.866 179.529 255.866 179.217C255.866 178.906 255.739 178.653 255.582 178.653C255.426 178.653 255.299 178.906 255.299 179.217C255.299 179.529 255.426 179.781 255.582 179.781Z" fill="white"/>
<path d="M256.994 172.999C257.151 172.999 257.277 172.746 257.277 172.435C257.277 172.123 257.151 171.871 256.994 171.871C256.838 171.871 256.711 172.123 256.711 172.435C256.711 172.746 256.838 172.999 256.994 172.999Z" fill="white"/>
<path d="M255.863 177.683C256.02 177.683 256.147 177.43 256.147 177.119C256.147 176.807 256.02 176.554 255.863 176.554C255.707 176.554 255.58 176.807 255.58 177.119C255.58 177.43 255.707 177.683 255.863 177.683Z" fill="white"/>
<path opacity="0.1" d="M278.033 148.667C278.033 148.667 273.67 147.915 272.336 148.667C271.002 149.42 278.033 148.667 278.033 148.667Z" fill="black"/>
<path opacity="0.1" d="M275.1 152.933C275.1 152.933 272.844 149.259 272.169 150.425C271.495 151.591 275.1 152.933 275.1 152.933Z" fill="black"/>
<path opacity="0.1" d="M264.544 157.012C264.423 157.132 259.617 162.623 259.659 162.987C259.702 163.351 264.544 157.012 264.544 157.012Z" fill="black"/>
<path opacity="0.1" d="M307.663 137.55C307.623 137.673 306.369 140.175 307.199 140.458C308.029 140.742 307.663 137.55 307.663 137.55Z" fill="black"/>
<path opacity="0.1" d="M303.909 134.077C303.909 134.077 302.011 134.764 301.688 135.08C301.364 135.396 303.909 134.077 303.909 134.077Z" fill="black"/>
<path opacity="0.1" d="M310.328 132.217C309.441 132.177 306.291 131.327 306.169 131.61C306.046 131.893 310.328 132.217 310.328 132.217Z" fill="black"/>
<path opacity="0.1" d="M277.266 116.827C277.133 119.966 275.336 122.721 275.336 122.721L278.344 130.04V132.169C280.39 132.385 282.547 131.941 284.036 130.549C282.855 130.163 282.136 128.99 281.586 127.874C280.946 126.564 280.399 125.21 279.949 123.822C279.648 122.892 279.493 121.653 280.32 121.129C280.699 120.878 281.2 120.878 281.551 120.598C282.005 120.234 282.035 119.544 281.88 118.985C281.862 118.925 281.845 118.865 281.825 118.807C281.459 117.719 280.596 116.859 280.069 115.831C279.454 114.592 279.34 113.163 279.751 111.842C279.885 111.399 280.08 110.977 280.33 110.588C280.835 109.821 281.528 109.196 282.343 108.773C283.158 108.35 284.068 108.142 284.986 108.171C285.455 108.191 286.029 108.221 286.268 107.82C286.453 107.514 286.32 107.118 286.38 106.764C286.559 105.686 287.885 105.448 289.139 105.112C288.401 104.037 287.415 103.157 286.263 102.545C285.112 101.934 283.83 101.61 282.527 101.602C277.993 101.602 274.315 105.458 274.315 110.217C274.309 111.465 274.569 112.701 275.077 113.84C275.586 114.98 276.333 115.998 277.266 116.827Z" fill="black"/>
<path d="M286.067 106.767C286.007 107.121 286.14 107.519 285.957 107.825C285.706 108.224 285.142 108.194 284.675 108.174C283.755 108.133 282.84 108.335 282.022 108.758C281.205 109.182 280.512 109.813 280.014 110.588C279.516 111.363 279.23 112.255 279.185 113.175C279.14 114.095 279.337 115.011 279.756 115.831C280.308 116.914 281.235 117.812 281.564 118.983C281.719 119.544 281.689 120.237 281.235 120.598C280.887 120.881 280.383 120.888 280.004 121.129C279.177 121.653 279.332 122.884 279.633 123.822C280.083 125.21 280.631 126.564 281.273 127.874C281.82 128.99 282.527 130.163 283.72 130.549C281.995 132.159 279.382 132.505 277.076 132.016C274.769 131.527 272.685 130.326 270.647 129.138C269.809 128.651 268.924 128.112 268.516 127.235C267.959 126.041 268.455 124.655 268.809 123.388C268.931 123.073 268.946 122.725 268.852 122.4C268.694 122.019 268.282 121.821 267.901 121.648C266.291 120.976 269.406 120.394 267.901 119.502C266.397 118.609 265.028 117.386 264.341 115.781C263.17 113.05 264.225 109.793 266.096 107.484C267.966 105.175 265.775 103.565 268.167 101.802C269.691 100.677 271.176 99.463 272.871 98.6206C274.594 97.79 276.48 97.3527 278.393 97.3401C280.305 97.3275 282.197 97.7401 283.931 98.5478C285.668 99.3627 287.085 100.677 288.79 101.557C289.63 101.99 291.473 102.54 291.004 103.743C290.294 105.578 286.383 104.864 286.067 106.767Z" fill="#171717"/>
<path opacity="0.1" d="M269.205 173.297C269.205 173.297 275.223 178.788 273.941 178.788C272.66 178.788 269.205 173.297 269.205 173.297Z" fill="black"/>
<path opacity="0.1" d="M268.343 175.451C268.343 175.451 272.327 179.212 271.143 179.541C269.96 179.869 268.343 175.451 268.343 175.451Z" fill="black"/>
<path opacity="0.1" d="M266.695 166.362C266.695 166.362 267.026 166.578 267.663 166.959C268.744 165.876 270.328 164.133 270.842 162.729C271.65 160.52 271.326 154.116 271.326 154.116C271.055 154.384 270.652 156.623 270.652 156.623L269.691 160.199L269.523 160.339C268.019 161.575 267.826 163.729 267.395 164.268C266.963 164.807 266.695 166.362 266.695 166.362Z" fill="black"/>
<path d="M204.425 253.568C205.63 253.568 206.606 252.591 206.606 251.386C206.606 250.182 205.63 249.205 204.425 249.205C203.22 249.205 202.244 250.182 202.244 251.386C202.244 252.591 203.22 253.568 204.425 253.568Z" fill="#3F3D56"/>
<path d="M223.564 243.308C224.768 243.308 225.745 242.331 225.745 241.126C225.745 239.922 224.768 238.945 223.564 238.945C222.359 238.945 221.382 239.922 221.382 241.126C221.382 242.331 222.359 243.308 223.564 243.308Z" fill="#3F3D56"/>
<path d="M191.617 234.582C194.25 234.45 200.709 234.289 202.003 233.642C203.297 232.995 217.345 218.056 217.345 218.056L221.543 211.921L228.408 209.015L234.14 202.468L238.666 199.575C238.666 199.575 237.693 199.881 237.612 198.915C237.592 198.666 237.531 198.422 237.432 198.193C237.321 197.912 237.141 197.664 236.908 197.471C236.749 197.34 236.558 197.255 236.354 197.226C236.151 197.197 235.943 197.224 235.754 197.306C234.706 197.709 220.921 200.051 220.921 200.051C220.921 200.051 216.618 200.778 212.662 206.026C210.398 209.059 207.881 211.895 205.14 214.504L194.398 227.344C194.398 227.344 188.985 234.715 191.617 234.582Z" fill="#82CFCB"/>
<path d="M191.585 237.759L202.243 251.387L202.625 251.209L222.834 241.789L231.071 233.472C231.071 233.472 248.918 214.666 250.29 211.831C251.661 208.995 246.348 204.321 246.348 204.321C242.166 196.972 239.874 199.234 239.874 199.234L219.619 204.802H219.604L219.502 204.93C217.929 206.603 200.122 225.556 194.318 231.491L194.305 231.506C193.48 232.351 192.898 232.93 192.648 233.153C190.537 235.019 191.585 237.759 191.585 237.759Z" fill="#82CFCB"/>
<path opacity="0.1" d="M191.585 237.759L202.243 251.387L202.624 251.208C208.264 244.13 222.167 226.814 226.066 223.284C230.99 218.821 229.782 216.038 229.782 216.038L225.582 210.306C222.415 204.434 219.84 204.77 219.622 204.812H219.607L219.502 204.93L194.31 231.493L194.298 231.508C193.473 232.353 192.891 232.932 192.64 233.155C190.536 235.018 191.585 237.759 191.585 237.759Z" fill="black"/>
<path d="M240.358 204.088L238.58 202.553C238.58 202.553 234.546 201.671 231.153 205.622L232.364 207.077C232.364 207.077 235.431 203.524 240.358 204.088Z" fill="#3F3D56"/>
<path opacity="0.1" d="M240.358 204.088L238.58 202.553C238.58 202.553 234.546 201.671 231.153 205.622L232.364 207.077C232.364 207.077 235.431 203.524 240.358 204.088Z" fill="black"/>
<path d="M243.347 212.971L260.625 190.531L259.577 190.119L241.973 212.164L243.347 212.971Z" fill="#65617D"/>
<path d="M237.371 214.827L254.798 192.461L253.925 191.33L235.754 213.859L237.371 214.827Z" fill="#65617D"/>
<path d="M254.569 193.053C254.381 192.993 252.684 191.518 252.684 191.518C253.968 189.561 255.777 188.004 257.904 187.025C259.777 186.168 261.873 185.498 262.726 186.273C262.726 186.273 264.205 188.086 262.455 189.495L261.201 189.179C261.201 189.179 259.316 187.08 256.247 191.062L254.569 193.053Z" fill="#3F3D56"/>
<path d="M262.455 189.493L260.168 191.842L258.446 191.06L260.452 188.505L261.515 188.826L262.455 189.493Z" fill="#3F3D56"/>
<path opacity="0.1" d="M209.432 212.969C209.565 212.834 217.31 205.043 219.552 203.441C221.512 202.042 234.119 198.98 237.432 198.193C237.32 197.912 237.14 197.664 236.908 197.471C233.748 198.323 223.571 201.067 220.359 201.881C216.565 202.842 209.542 212.811 209.432 212.969Z" fill="black"/>
<path opacity="0.1" d="M238.098 199.73L219.657 204.609L191.617 234.582V233.722L219.12 204.449L238.098 199.73Z" fill="black"/>
<path opacity="0.1" d="M276.02 131.758C278.329 132.247 280.942 131.901 282.667 130.291C281.486 129.902 280.766 128.731 280.217 127.616C279.576 126.306 279.029 124.952 278.58 123.564C278.277 122.634 278.121 121.395 278.949 120.871C279.33 120.62 279.831 120.62 280.182 120.339C280.636 119.976 280.666 119.286 280.508 118.725C280.182 117.554 279.254 116.656 278.7 115.573C278.281 114.753 278.084 113.837 278.129 112.917C278.175 111.997 278.461 111.105 278.958 110.33C279.456 109.555 280.149 108.924 280.967 108.5C281.785 108.077 282.7 107.875 283.62 107.915C284.086 107.935 284.663 107.965 284.901 107.567C285.084 107.258 284.954 106.862 285.011 106.509C285.33 104.606 289.239 105.32 289.946 103.5C290.412 102.296 288.572 101.745 287.732 101.313C286.027 100.431 284.61 99.117 282.873 98.3046C282.587 98.1717 282.293 98.0539 281.998 97.936C282.629 98.1152 283.245 98.3432 283.84 98.618C285.578 99.4329 286.995 100.747 288.7 101.627C289.54 102.063 291.383 102.612 290.914 103.816C290.209 105.636 286.298 104.922 285.982 106.825C285.922 107.178 286.054 107.577 285.871 107.883C285.621 108.281 285.057 108.251 284.59 108.231C283.67 108.192 282.755 108.394 281.938 108.819C281.12 109.243 280.428 109.875 279.931 110.65C279.434 111.426 279.149 112.318 279.105 113.238C279.06 114.158 279.258 115.074 279.678 115.894C280.23 116.979 281.158 117.877 281.486 119.048C281.641 119.61 281.611 120.302 281.158 120.663C280.809 120.946 280.308 120.954 279.926 121.194C279.099 121.718 279.254 122.949 279.555 123.887C280.001 125.275 280.545 126.629 281.183 127.939C281.729 129.055 282.449 130.226 283.63 130.614C281.905 132.224 279.292 132.568 276.985 132.081C276.367 131.949 275.759 131.771 275.167 131.547C275.453 131.627 275.734 131.698 276.02 131.758Z" fill="black"/>
</svg>
